GoogleSansCode-Bold.ufo
<glyph name="ampersand" format="2">
  <advance width="1200"/>
  <unicode hex="0026"/>
  <outline>
    <contour>
      <point x="990" y="-58" type="line"/>
      <point x="1194" y="135" type="line"/>
      <point x="530" y="860" type="line" smooth="yes"/>
      <point x="453" y="944"/>
      <point x="422" y="1000"/>
      <point x="422" y="1055" type="curve" smooth="yes"/>
      <point x="422" y="1062" type="line" smooth="yes"/>
      <point x="422" y="1138"/>
      <point x="475" y="1187"/>
      <point x="556" y="1187" type="curve" smooth="yes"/>
      <point x="637" y="1187"/>
      <point x="687" y="1141"/>
      <point x="722" y="1038" type="curve"/>
      <point x="988" y="1121" type="line"/>
      <point x="917" y="1349"/>
      <point x="766" y="1466"/>
      <point x="546" y="1466" type="curve" smooth="yes"/>
      <point x="292" y="1466"/>
      <point x="120" y="1314"/>
      <point x="120" y="1090" type="curve" smooth="yes"/>
      <point x="120" y="1088" type="line" smooth="yes"/>
      <point x="120" y="956"/>
      <point x="181" y="843"/>
      <point x="334" y="672" type="curve" smooth="yes"/>
    </contour>
    <contour>
      <point x="483" y="-34" type="curve" smooth="yes"/>
      <point x="795" y="-34"/>
      <point x="1042" y="276"/>
      <point x="1126" y="818" type="curve"/>
      <point x="843" y="857" type="line"/>
      <point x="799" y="390"/>
      <point x="710" y="234"/>
      <point x="529" y="234" type="curve" smooth="yes"/>
      <point x="401" y="234"/>
      <point x="326" y="303"/>
      <point x="326" y="421" type="curve" smooth="yes"/>
      <point x="326" y="439" type="line" smooth="yes"/>
      <point x="326" y="556"/>
      <point x="381" y="631"/>
      <point x="484" y="673" type="curve"/>
      <point x="365" y="848" type="line"/>
      <point x="153" y="761"/>
      <point x="26" y="618"/>
      <point x="26" y="393" type="curve" smooth="yes"/>
      <point x="26" y="381" type="line" smooth="yes"/>
      <point x="26" y="138"/>
      <point x="208" y="-34"/>
    </contour>
  </outline>
</glyph>
<glyph name="quotesingle" format="2">
  <advance width="1200"/>
  <unicode hex="0027"/>
  <outline>
    <contour>
      <point x="435" y="899" type="line"/>
      <point x="765" y="899" type="line"/>
      <point x="765" y="1460" type="line"/>
      <point x="435" y="1460" type="line"/>
    </contour>
  </outline>
</glyph>
<glyph name="comma" format="2">
  <advance width="1200"/>
  <unicode hex="002C"/>
  <outline>
    <contour>
      <point x="493" y="-375" type="line"/>
      <point x="710" y="-78" type="line" smooth="yes"/>
      <point x="780" y="18"/>
      <point x="812" y="87"/>
      <point x="812" y="174" type="curve" smooth="yes"/>
      <point x="812" y="292"/>
      <point x="737" y="386"/>
      <point x="605" y="386" type="curve" smooth="yes"/>
      <point x="484" y="386"/>
      <point x="405" y="300"/>
      <point x="405" y="190" type="curve" smooth="yes"/>
      <point x="405" y="69"/>
      <point x="509" y="3"/>
      <point x="597" y="10" type="curve"/>
      <point x="603" y="103" type="line"/>
      <point x="325" y="-255" type="line"/>
    </contour>
  </outline>
</glyph>
<glyph name="zero" format="2">
  <advance width="1200"/>
  <unicode hex="0030"/>
  <outline>
    <contour>
      <point x="219" y="377" type="line"/>
      <point x="1079" y="831" type="line"/>
      <point x="981" y="1056" type="line"/>
      <point x="121" y="602" type="line"/>
    </contour>
    <contour>
      <point x="601" y="-34" type="curve" smooth="yes"/>
      <point x="930" y="-34"/>
      <point x="1124" y="228"/>
      <point x="1124" y="692" type="curve" smooth="yes"/>
      <point x="1124" y="741" type="line" smooth="yes"/>
      <point x="1124" y="1206"/>
      <point x="930" y="1466"/>
      <point x="601" y="1466" type="curve" smooth="yes"/>
      <point x="272" y="1466"/>
      <point x="76" y="1206"/>
      <point x="76" y="741" type="curve" smooth="yes"/>
      <point x="76" y="692" type="line" smooth="yes"/>
      <point x="76" y="228"/>
      <point x="272" y="-34"/>
    </contour>
    <contour>
      <point x="592" y="240" type="curve" smooth="yes"/>
      <point x="440" y="240"/>
      <point x="368" y="381"/>
      <point x="368" y="679" type="curve" smooth="yes"/>
      <point x="368" y="755" type="line" smooth="yes"/>
      <point x="368" y="1048"/>
      <point x="443" y="1192"/>
      <point x="608" y="1192" type="curve" smooth="yes"/>
      <point x="760" y="1192"/>
      <point x="832" y="1054"/>
      <point x="832" y="755" type="curve" smooth="yes"/>
      <point x="832" y="679" type="line" smooth="yes"/>
      <point x="832" y="386"/>
      <point x="757" y="240"/>
    </contour>
  </outline>
</glyph>
<glyph name="one" format="2">
  <advance width="1200"/>
  <unicode hex="0031"/>
  <outline>
    <contour>
      <point x="527" y="110" type="line"/>
      <point x="831" y="110" type="line"/>
      <point x="831" y="1432" type="line"/>
      <point x="616" y="1432" type="line"/>
      <point x="101" y="1178" type="line"/>
      <point x="231" y="919" type="line"/>
      <point x="527" y="1067" type="line"/>
    </contour>
    <contour>
      <point x="154" y="0" type="line"/>
      <point x="1158" y="0" type="line"/>
      <point x="1158" y="282" type="line"/>
      <point x="154" y="282" type="line"/>
    </contour>
  </outline>
</glyph>
<glyph name="two" format="2">
  <advance width="1200"/>
  <unicode hex="0032"/>
  <outline>
    <contour>
      <point x="114" y="0" type="line"/>
      <point x="1082" y="0" type="line"/>
      <point x="1082" y="287" type="line"/>
      <point x="523" y="287" type="line"/>
      <point x="523" y="297" type="line"/>
      <point x="809" y="604" type="line" smooth="yes"/>
      <point x="998" y="807"/>
      <point x="1055" y="915"/>
      <point x="1055" y="1064" type="curve" smooth="yes"/>
      <point x="1055" y="1073" type="line" smooth="yes"/>
      <point x="1055" y="1308"/>
      <point x="880" y="1466"/>
      <point x="620" y="1466" type="curve" smooth="yes"/>
      <point x="379" y="1466"/>
      <point x="190" y="1338"/>
      <point x="108" y="1117" type="curve"/>
      <point x="401" y="1008" type="line"/>
      <point x="442" y="1113"/>
      <point x="504" y="1164"/>
      <point x="593" y="1164" type="curve" smooth="yes"/>
      <point x="678" y="1164"/>
      <point x="729" y="1113"/>
      <point x="729" y="1028" type="curve" smooth="yes"/>
      <point x="729" y="1021" type="line" smooth="yes"/>
      <point x="729" y="942"/>
      <point x="699" y="885"/>
      <point x="599" y="775" type="curve" smooth="yes"/>
      <point x="114" y="242" type="line"/>
    </contour>
  </outline>
</glyph>
<glyph name="six" format="2">
  <advance width="1200"/>
  <unicode hex="0036"/>
  <outline>
    <contour>
      <point x="598" y="-31" type="curve" smooth="yes"/>
      <point x="903" y="-31"/>
      <point x="1117" y="177"/>
      <point x="1117" y="472" type="curve" smooth="yes"/>
      <point x="1117" y="482" type="line" smooth="yes"/>
      <point x="1117" y="748"/>
      <point x="960" y="939"/>
      <point x="714" y="939" type="curve" smooth="yes"/>
      <point x="640" y="939"/>
      <point x="576" y="923"/>
      <point x="521" y="894" type="curve"/>
      <point x="517" y="902" type="line"/>
      <point x="574" y="943"/>
      <point x="619" y="984"/>
      <point x="668" y="1041" type="curve" smooth="yes"/>
      <point x="896" y="1308" type="line"/>
      <point x="645" y="1490" type="line"/>
      <point x="331" y="1077" type="line" smooth="yes"/>
      <point x="150" y="839"/>
      <point x="83" y="673"/>
      <point x="83" y="488" type="curve" smooth="yes"/>
      <point x="83" y="478" type="line" smooth="yes"/>
      <point x="83" y="181"/>
      <point x="296" y="-31"/>
    </contour>
    <contour>
      <point x="600" y="259" type="curve" smooth="yes"/>
      <point x="469" y="259"/>
      <point x="393" y="343"/>
      <point x="393" y="469" type="curve" smooth="yes"/>
      <point x="393" y="489" type="line" smooth="yes"/>
      <point x="393" y="615"/>
      <point x="469" y="699"/>
      <point x="600" y="699" type="curve" smooth="yes"/>
      <point x="732" y="699"/>
      <point x="807" y="615"/>
      <point x="807" y="489" type="curve" smooth="yes"/>
      <point x="807" y="469" type="line" smooth="yes"/>
      <point x="807" y="343"/>
      <point x="731" y="259"/>
    </contour>
  </outline>
</glyph>
<glyph name="colon" format="2">
  <advance width="1200"/>
  <unicode hex="003A"/>
  <outline>
    <contour>
      <point x="600" y="678" type="curve" smooth="yes"/>
      <point x="717" y="678"/>
      <point x="806" y="767"/>
      <point x="806" y="882" type="curve" smooth="yes"/>
      <point x="806" y="996"/>
      <point x="717" y="1086"/>
      <point x="600" y="1086" type="curve" smooth="yes"/>
      <point x="485" y="1086"/>
      <point x="394" y="996"/>
      <point x="394" y="882" type="curve" smooth="yes"/>
      <point x="394" y="767"/>
      <point x="486" y="678"/>
    </contour>
    <contour>
      <point x="600" y="-30" type="curve" smooth="yes"/>
      <point x="717" y="-30"/>
      <point x="806" y="59"/>
      <point x="806" y="175" type="curve" smooth="yes"/>
      <point x="806" y="288"/>
      <point x="717" y="379"/>
      <point x="600" y="379" type="curve" smooth="yes"/>
      <point x="485" y="379"/>
      <point x="394" y="288"/>
      <point x="394" y="175" type="curve" smooth="yes"/>
      <point x="394" y="59"/>
      <point x="486" y="-30"/>
    </contour>
  </outline>
</glyph>
<glyph name="less" format="2">
  <advance width="1200"/>
  <unicode hex="003C"/>
  <outline>
    <contour>
      <point x="1060" y="37" type="line"/>
      <point x="1060" y="335" type="line"/>
      <point x="442" y="640" type="line"/>
      <point x="442" y="652" type="line"/>
      <point x="1060" y="957" type="line"/>
      <point x="1060" y="1255" type="line"/>
      <point x="100" y="762" type="line"/>
      <point x="100" y="530" type="line"/>
    </contour>
  </outline>
</glyph>
<glyph name="equal" format="2">
  <advance width="1200"/>
  <unicode hex="003D"/>
  <outline>
    <contour>
      <point x="110" y="761" type="line"/>
      <point x="1090" y="761" type="line"/>
      <point x="1090" y="1027" type="line"/>
      <point x="110" y="1027" type="line"/>
    </contour>
    <contour>
      <point x="110" y="265" type="line"/>
      <point x="1090" y="265" type="line"/>
      <point x="1090" y="531" type="line"/>
      <point x="110" y="531" type="line"/>
    </contour>
  </outline>
</glyph>
<glyph name="question" format="2">
  <advance width="1200"/>
  <unicode hex="003F"/>
  <outline>
    <contour>
      <point x="423" y="467" type="line"/>
      <point x="734" y="467" type="line"/>
      <point x="734" y="614" type="line"/>
      <point x="864" y="690" type="line" smooth="yes"/>
      <point x="1026" y="785"/>
      <point x="1097" y="900"/>
      <point x="1097" y="1056" type="curve" smooth="yes"/>
      <point x="1097" y="1058" type="line" smooth="yes"/>
      <point x="1097" y="1299"/>
      <point x="911" y="1466"/>
      <point x="633" y="1466" type="curve" smooth="yes"/>
      <point x="373" y="1466"/>
      <point x="169" y="1325"/>
      <point x="89" y="1088" type="curve"/>
      <point x="378" y="994" type="line"/>
      <point x="418" y="1110"/>
      <point x="511" y="1178"/>
      <point x="629" y="1178" type="curve" smooth="yes"/>
      <point x="726" y="1178"/>
      <point x="787" y="1130"/>
      <point x="787" y="1051" type="curve" smooth="yes"/>
      <point x="787" y="1039" type="line" smooth="yes"/>
      <point x="787" y="966"/>
      <point x="741" y="912"/>
      <point x="619" y="844" type="curve" smooth="yes"/>
      <point x="423" y="734" type="line"/>
    </contour>
    <contour>
      <point x="579" y="-34" type="curve" smooth="yes"/>
      <point x="688" y="-34"/>
      <point x="777" y="57"/>
      <point x="777" y="167" type="curve" smooth="yes"/>
      <point x="777" y="276"/>
      <point x="690" y="361"/>
      <point x="579" y="361" type="curve" smooth="yes"/>
      <point x="468" y="361"/>
      <point x="379" y="276"/>
      <point x="379" y="167" type="curve" smooth="yes"/>
      <point x="379" y="57"/>
      <point x="468" y="-34"/>
    </contour>
  </outline>
</glyph>
<glyph name="B" format="2">
  <advance width="1200"/>
  <unicode hex="0042"/>
  <outline>
    <contour>
      <point x="130" y="0" type="line"/>
      <point x="675" y="0" type="line" smooth="yes"/>
      <point x="950" y="0"/>
      <point x="1124" y="145"/>
      <point x="1124" y="374" type="curve" smooth="yes"/>
      <point x="1124" y="397" type="line" smooth="yes"/>
      <point x="1124" y="572"/>
      <point x="1024" y="699"/>
      <point x="853" y="743" type="curve"/>
      <point x="853" y="752" type="line"/>
      <point x="992" y="805"/>
      <point x="1067" y="915"/>
      <point x="1067" y="1063" type="curve" smooth="yes"/>
      <point x="1067" y="1084" type="line" smooth="yes"/>
      <point x="1067" y="1297"/>
      <point x="907" y="1432"/>
      <point x="655" y="1432" type="curve" smooth="yes"/>
      <point x="130" y="1432" type="line"/>
    </contour>
    <contour>
      <point x="432" y="248" type="line"/>
      <point x="432" y="1184" type="line"/>
      <point x="591" y="1184" type="line" smooth="yes"/>
      <point x="702" y="1184"/>
      <point x="763" y="1128"/>
      <point x="763" y="1026" type="curve" smooth="yes"/>
      <point x="763" y="1012" type="line" smooth="yes"/>
      <point x="763" y="910"/>
      <point x="702" y="854"/>
      <point x="591" y="854" type="curve" smooth="yes"/>
      <point x="365" y="854" type="line"/>
      <point x="365" y="608" type="line"/>
      <point x="626" y="608" type="line" smooth="yes"/>
      <point x="750" y="608"/>
      <point x="820" y="546"/>
      <point x="820" y="437" type="curve" smooth="yes"/>
      <point x="820" y="419" type="line" smooth="yes"/>
      <point x="820" y="309"/>
      <point x="753" y="248"/>
      <point x="633" y="248" type="curve" smooth="yes"/>
    </contour>
  </outline>
</glyph>
<glyph name="C" format="2">
  <advance width="1200"/>
  <unicode hex="0043"/>
  <anchor x="656" y="0" name="bottom"/>
  <anchor x="645" y="1432" name="top"/>
  <outline>
    <contour>
      <point x="657" y="-34" type="curve" smooth="yes"/>
      <point x="905" y="-34"/>
      <point x="1084" y="114"/>
      <point x="1145" y="369" type="curve"/>
      <point x="861" y="453" type="line"/>
      <point x="829" y="324"/>
      <point x="759" y="256"/>
      <point x="655" y="256" type="curve" smooth="yes"/>
      <point x="489" y="256"/>
      <point x="390" y="417"/>
      <point x="390" y="689" type="curve" smooth="yes"/>
      <point x="390" y="743" type="line" smooth="yes"/>
      <point x="390" y="1019"/>
      <point x="482" y="1176"/>
      <point x="643" y="1176" type="curve" smooth="yes"/>
      <point x="749" y="1176"/>
      <point x="810" y="1117"/>
      <point x="843" y="986" type="curve"/>
      <point x="1127" y="1071" type="line"/>
      <point x="1066" y="1325"/>
      <point x="894" y="1466"/>
      <point x="647" y="1466" type="curve" smooth="yes"/>
      <point x="299" y="1466"/>
      <point x="76" y="1182"/>
      <point x="76" y="738" type="curve" smooth="yes"/>
      <point x="76" y="694" type="line" smooth="yes"/>
      <point x="76" y="255"/>
      <point x="307" y="-34"/>
    </contour>
  </outline>
</glyph>
<glyph name="D" format="2">
  <advance width="1200"/>
  <unicode hex="0044"/>
  <anchor x="572" y="1432" name="top"/>
  <outline>
    <contour>
      <point x="116" y="0" type="line"/>
      <point x="534" y="0" type="line" smooth="yes"/>
      <point x="893" y="0"/>
      <point x="1120" y="269"/>
      <point x="1120" y="694" type="curve" smooth="yes"/>
      <point x="1120" y="738" type="line" smooth="yes"/>
      <point x="1120" y="1163"/>
      <point x="893" y="1432"/>
      <point x="534" y="1432" type="curve" smooth="yes"/>
      <point x="116" y="1432" type="line"/>
    </contour>
    <contour>
      <point x="422" y="288" type="line"/>
      <point x="422" y="1144" type="line"/>
      <point x="530" y="1144" type="line" smooth="yes"/>
      <point x="713" y="1144"/>
      <point x="806" y="1009"/>
      <point x="806" y="743" type="curve" smooth="yes"/>
      <point x="806" y="689" type="line" smooth="yes"/>
      <point x="806" y="422"/>
      <point x="714" y="288"/>
      <point x="530" y="288" type="curve" smooth="yes"/>
    </contour>
  </outline>
</glyph>
<glyph name="F" format="2">
  <advance width="1200"/>
  <unicode hex="0046"/>
  <outline>
    <contour>
      <point x="144" y="0" type="line"/>
      <point x="452" y="0" type="line"/>
      <point x="452" y="1144" type="line"/>
      <point x="1050" y="1144" type="line"/>
      <point x="1050" y="1432" type="line"/>
      <point x="144" y="1432" type="line"/>
    </contour>
    <contour>
      <point x="333" y="538" type="line"/>
      <point x="990" y="538" type="line"/>
      <point x="990" y="822" type="line"/>
      <point x="333" y="822" type="line"/>
    </contour>
  </outline>
</glyph>
<glyph name="G" format="2">
  <advance width="1200"/>
  <unicode hex="0047"/>
  <anchor x="650" y="0" name="bottom"/>
  <anchor x="644" y="1432" name="top"/>
  <outline>
    <contour>
      <point x="649" y="-34" type="curve" smooth="yes"/>
      <point x="977" y="-34"/>
      <point x="1162" y="190"/>
      <point x="1162" y="588" type="curve" smooth="yes"/>
      <point x="1162" y="816" type="line"/>
      <point x="600" y="816" type="line"/>
      <point x="600" y="569" type="line"/>
      <point x="878" y="569" type="line"/>
      <point x="878" y="525" type="line" smooth="yes"/>
      <point x="878" y="351"/>
      <point x="795" y="250"/>
      <point x="651" y="250" type="curve" smooth="yes"/>
      <point x="469" y="250"/>
      <point x="372" y="403"/>
      <point x="372" y="690" type="curve" smooth="yes"/>
      <point x="372" y="738" type="line" smooth="yes"/>
      <point x="372" y="1023"/>
      <point x="468" y="1178"/>
      <point x="645" y="1178" type="curve" smooth="yes"/>
      <point x="753" y="1178"/>
      <point x="816" y="1125"/>
      <point x="850" y="1005" type="curve"/>
      <point x="1127" y="1100" type="line"/>
      <point x="1058" y="1339"/>
      <point x="890" y="1466"/>
      <point x="643" y="1466" type="curve" smooth="yes"/>
      <point x="285" y="1466"/>
      <point x="62" y="1185"/>
      <point x="62" y="733" type="curve" smooth="yes"/>
      <point x="62" y="695" type="line" smooth="yes"/>
      <point x="62" y="244"/>
      <point x="286" y="-34"/>
    </contour>
  </outline>
</glyph>
<glyph name="H" format="2">
  <advance width="1200"/>
  <unicode hex="0048"/>
  <outline>
    <contour>
      <point x="772" y="0" type="line"/>
      <point x="1080" y="0" type="line"/>
      <point x="1080" y="1432" type="line"/>
      <point x="772" y="1432" type="line"/>
    </contour>
    <contour>
      <point x="120" y="0" type="line"/>
      <point x="428" y="0" type="line"/>
      <point x="428" y="1432" type="line"/>
      <point x="120" y="1432" type="line"/>
    </contour>
    <contour>
      <point x="313" y="588" type="line"/>
      <point x="899" y="588" type="line"/>
      <point x="899" y="872" type="line"/>
      <point x="313" y="872" type="line"/>
    </contour>
  </outline>
</glyph>
<glyph name="I" format="2">
  <advance width="1200"/>
  <unicode hex="0049"/>
  <anchor x="600" y="0" name="bottom"/>
  <anchor x="774" y="0" name="ogonek"/>
  <anchor x="600" y="1432" name="top"/>
  <outline>
    <contour>
      <point x="445" y="139" type="line"/>
      <point x="755" y="139" type="line"/>
      <point x="755" y="1293" type="line"/>
      <point x="445" y="1293" type="line"/>
    </contour>
    <contour>
      <point x="142" y="0" type="line"/>
      <point x="1058" y="0" type="line"/>
      <point x="1058" y="289" type="line"/>
      <point x="142" y="289" type="line"/>
    </contour>
    <contour>
      <point x="142" y="1144" type="line"/>
      <point x="1058" y="1144" type="line"/>
      <point x="1058" y="1432" type="line"/>
      <point x="142" y="1432" type="line"/>
    </contour>
  </outline>
</glyph>
<glyph name="J" format="2">
  <advance width="1200"/>
  <unicode hex="004A"/>
  <anchor x="873" y="1432" name="top"/>
  <outline>
    <contour>
      <point x="599" y="-34" type="curve" smooth="yes"/>
      <point x="877" y="-34"/>
      <point x="1058" y="162"/>
      <point x="1058" y="462" type="curve" smooth="yes"/>
      <point x="1058" y="1432" type="line"/>
      <point x="748" y="1432" type="line"/>
      <point x="748" y="470" type="line" smooth="yes"/>
      <point x="748" y="331"/>
      <point x="691" y="256"/>
      <point x="586" y="256" type="curve" smooth="yes"/>
      <point x="487" y="256"/>
      <point x="421" y="318"/>
      <point x="392" y="439" type="curve"/>
      <point x="108" y="355" type="line"/>
      <point x="167" y="112"/>
      <point x="352" y="-34"/>
    </contour>
  </outline>
</glyph>
<glyph name="K" format="2">
  <advance width="1200"/>
  <unicode hex="004B"/>
  <anchor x="612" y="0" name="bottom"/>
  <outline>
    <contour>
      <point x="821" y="0" type="line"/>
      <point x="1174" y="0" type="line"/>
      <point x="691" y="791" type="line"/>
      <point x="691" y="673" type="line"/>
      <point x="1153" y="1432" type="line"/>
      <point x="804" y="1432" type="line"/>
      <point x="393" y="727" type="line"/>
      <point x="393" y="719" type="line"/>
    </contour>
    <contour>
      <point x="94" y="0" type="line"/>
      <point x="402" y="0" type="line"/>
      <point x="402" y="1432" type="line"/>
      <point x="94" y="1432" type="line"/>
    </contour>
  </outline>
</glyph>
<glyph name="P" format="2">
  <advance width="1200"/>
  <unicode hex="0050"/>
  <outline>
    <contour>
      <point x="124" y="0" type="line"/>
      <point x="430" y="0" type="line"/>
      <point x="430" y="1154" type="line"/>
      <point x="582" y="1154" type="line" smooth="yes"/>
      <point x="711" y="1154"/>
      <point x="790" y="1080"/>
      <point x="790" y="959" type="curve" smooth="yes"/>
      <point x="790" y="927" type="line" smooth="yes"/>
      <point x="790" y="806"/>
      <point x="711" y="732"/>
      <point x="582" y="732" type="curve" smooth="yes"/>
      <point x="301" y="732" type="line"/>
      <point x="301" y="454" type="line"/>
      <point x="588" y="454" type="line" smooth="yes"/>
      <point x="906" y="454"/>
      <point x="1100" y="635"/>
      <point x="1100" y="932" type="curve" smooth="yes"/>
      <point x="1100" y="954" type="line" smooth="yes"/>
      <point x="1100" y="1251"/>
      <point x="906" y="1432"/>
      <point x="588" y="1432" type="curve" smooth="yes"/>
      <point x="124" y="1432" type="line"/>
    </contour>
  </outline>
</glyph>
<glyph name="R" format="2">
  <advance width="1200"/>
  <unicode hex="0052"/>
  <anchor x="516" y="1432" name="top"/>
  <outline>
    <contour>
      <point x="114" y="0" type="line"/>
      <point x="420" y="0" type="line"/>
      <point x="420" y="1154" type="line"/>
      <point x="572" y="1154" type="line" smooth="yes"/>
      <point x="698" y="1154"/>
      <point x="774" y="1086"/>
      <point x="774" y="973" type="curve" smooth="yes"/>
      <point x="774" y="949" type="line" smooth="yes"/>
      <point x="774" y="836"/>
      <point x="699" y="769"/>
      <point x="572" y="769" type="curve" smooth="yes"/>
      <point x="291" y="769" type="line"/>
      <point x="291" y="509" type="line"/>
      <point x="579" y="509" type="line" smooth="yes"/>
      <point x="893" y="509"/>
      <point x="1084" y="681"/>
      <point x="1084" y="964" type="curve" smooth="yes"/>
      <point x="1084" y="978" type="line" smooth="yes"/>
      <point x="1084" y="1260"/>
      <point x="893" y="1432"/>
      <point x="579" y="1432" type="curve" smooth="yes"/>
      <point x="114" y="1432" type="line"/>
    </contour>
    <contour>
      <point x="819" y="0" type="line"/>
      <point x="1166" y="0" type="line"/>
      <point x="808" y="624" type="line"/>
      <point x="471" y="624" type="line"/>
    </contour>
  </outline>
</glyph>
<glyph name="T" format="2">
  <advance width="1200"/>
  <unicode hex="0054"/>
  <anchor x="600" y="0" name="bottom"/>
  <anchor x="600" y="1432" name="top"/>
  <outline>
    <contour>
      <point x="445" y="0" type="line"/>
      <point x="755" y="0" type="line"/>
      <point x="755" y="1283" type="line"/>
      <point x="445" y="1283" type="line"/>
    </contour>
    <contour>
      <point x="78" y="1142" type="line"/>
      <point x="1122" y="1142" type="line"/>
      <point x="1122" y="1432" type="line"/>
      <point x="78" y="1432" type="line"/>
    </contour>
  </outline>
</glyph>
<glyph name="W" format="2">
  <advance width="1200"/>
  <unicode hex="0057"/>
  <anchor x="596" y="1432" name="top"/>
  <outline>
    <contour>
      <point x="205" y="0" type="line"/>
      <point x="454" y="0" type="line"/>
      <point x="558" y="520" type="line"/>
      <point x="597" y="768" type="line"/>
      <point x="603" y="768" type="line"/>
      <point x="642" y="520" type="line"/>
      <point x="747" y="0" type="line"/>
      <point x="995" y="0" type="line"/>
      <point x="1178" y="1432" type="line"/>
      <point x="886" y="1432" type="line"/>
      <point x="821" y="455" type="line"/>
      <point x="815" y="455" type="line"/>
      <point x="770" y="734" type="line"/>
      <point x="686" y="1150" type="line"/>
      <point x="514" y="1150" type="line"/>
      <point x="430" y="734" type="line"/>
      <point x="385" y="455" type="line"/>
      <point x="379" y="455" type="line"/>
      <point x="305" y="1432" type="line"/>
      <point x="22" y="1432" type="line"/>
    </contour>
  </outline>
</glyph>
<glyph name="Z" format="2">
  <advance width="1200"/>
  <unicode hex="005A"/>
  <anchor x="605" y="1432" name="top"/>
  <outline>
    <contour>
      <point x="104" y="0" type="line"/>
      <point x="1096" y="0" type="line"/>
      <point x="1096" y="287" type="line"/>
      <point x="469" y="287" type="line"/>
      <point x="1082" y="1174" type="line"/>
      <point x="1082" y="1432" type="line"/>
      <point x="128" y="1432" type="line"/>
      <point x="128" y="1145" type="line"/>
      <point x="718" y="1145" type="line"/>
      <point x="104" y="258" type="line"/>
    </contour>
  </outline>
</glyph>
<glyph name="bracketright" format="2">
  <advance width="1200"/>
  <unicode hex="005D"/>
  <outline>
    <contour>
      <point x="142" y="-264" type="line"/>
      <point x="890" y="-264" type="line"/>
      <point x="890" y="1585" type="line"/>
      <point x="142" y="1585" type="line"/>
      <point x="142" y="1335" type="line"/>
      <point x="584" y="1335" type="line"/>
      <point x="584" y="-14" type="line"/>
      <point x="142" y="-14" type="line"/>
    </contour>
  </outline>
</glyph>
<glyph name="a" format="2">
  <advance width="1200"/>
  <unicode hex="0061"/>
  <anchor x="602" y="-34" name="bottom"/>
  <anchor x="1062" y="0" name="ogonek"/>
  <anchor x="610" y="1052" name="top"/>
  <outline>
    <contour>
      <point x="463" y="-34" type="curve" smooth="yes"/>
      <point x="596" y="-34"/>
      <point x="705" y="27"/>
      <point x="765" y="135" type="curve"/>
      <point x="774" y="135" type="line"/>
      <point x="774" y="0" type="line"/>
      <point x="1062" y="0" type="line"/>
      <point x="1062" y="673" type="line" smooth="yes"/>
      <point x="1062" y="941"/>
      <point x="904" y="1086"/>
      <point x="610" y="1086" type="curve" smooth="yes"/>
      <point x="431" y="1086"/>
      <point x="283" y="1029"/>
      <point x="170" y="916" type="curve"/>
      <point x="326" y="749" type="line"/>
      <point x="403" y="822"/>
      <point x="480" y="857"/>
      <point x="571" y="857" type="curve" smooth="yes"/>
      <point x="700" y="857"/>
      <point x="768" y="790"/>
      <point x="768" y="660" type="curve" smooth="yes"/>
      <point x="768" y="415" type="line" smooth="yes"/>
      <point x="768" y="268"/>
      <point x="692" y="170"/>
      <point x="578" y="170" type="curve" smooth="yes"/>
      <point x="478" y="170"/>
      <point x="420" y="221"/>
      <point x="420" y="312" type="curve" smooth="yes"/>
      <point x="420" y="326" type="line" smooth="yes"/>
      <point x="420" y="429"/>
      <point x="487" y="485"/>
      <point x="607" y="485" type="curve" smooth="yes"/>
      <point x="677" y="485"/>
      <point x="737" y="470"/>
      <point x="792" y="437" type="curve"/>
      <point x="792" y="612" type="line"/>
      <point x="717" y="646"/>
      <point x="630" y="665"/>
      <point x="528" y="665" type="curve" smooth="yes"/>
      <point x="277" y="665"/>
      <point x="115" y="526"/>
      <point x="115" y="311" type="curve" smooth="yes"/>
      <point x="115" y="298" type="line" smooth="yes"/>
      <point x="115" y="101"/>
      <point x="256" y="-34"/>
    </contour>
  </outline>
</glyph>
<glyph name="e" format="2">
  <advance width="1200"/>
  <unicode hex="0065"/>
  <anchor x="631" y="-34" name="bottom"/>
  <anchor x="901" y="0" name="ogonek"/>
  <anchor x="626" y="1052" name="top"/>
  <outline>
    <contour>
      <point x="631" y="-34" type="curve" smooth="yes"/>
      <point x="849" y="-34"/>
      <point x="1015" y="66"/>
      <point x="1095" y="245" type="curve"/>
      <point x="838" y="352" type="line"/>
      <point x="796" y="256"/>
      <point x="728" y="210"/>
      <point x="631" y="210" type="curve" smooth="yes"/>
      <point x="473" y="210"/>
      <point x="376" y="328"/>
      <point x="376" y="519" type="curve" smooth="yes"/>
      <point x="376" y="533" type="line" smooth="yes"/>
      <point x="376" y="727"/>
      <point x="472" y="846"/>
      <point x="627" y="846" type="curve" smooth="yes"/>
      <point x="751" y="846"/>
      <point x="826" y="763"/>
      <point x="826" y="625" type="curve"/>
      <point x="826" y="631" type="line"/>
      <point x="245" y="631" type="line"/>
      <point x="245" y="455" type="line"/>
      <point x="1089" y="455" type="line"/>
      <point x="1098" y="494"/>
      <point x="1102" y="543"/>
      <point x="1102" y="600" type="curve" smooth="yes"/>
      <point x="1102" y="894"/>
      <point x="913" y="1086"/>
      <point x="625" y="1086" type="curve" smooth="yes"/>
      <point x="304" y="1086"/>
      <point x="88" y="866"/>
      <point x="88" y="537" type="curve" smooth="yes"/>
      <point x="88" y="515" type="line" smooth="yes"/>
      <point x="88" y="182"/>
      <point x="301" y="-34"/>
    </contour>
  </outline>
</glyph>
<glyph name="h" format="2">
  <advance width="1200"/>
  <unicode hex="0068"/>
  <outline>
    <contour>
      <point x="138" y="0" type="line"/>
      <point x="440" y="0" type="line"/>
      <point x="440" y="615" type="line" smooth="yes"/>
      <point x="440" y="746"/>
      <point x="517" y="834"/>
      <point x="632" y="834" type="curve" smooth="yes"/>
      <point x="731" y="834"/>
      <point x="784" y="771"/>
      <point x="784" y="654" type="curve" smooth="yes"/>
      <point x="784" y="0" type="line"/>
      <point x="1086" y="0" type="line"/>
      <point x="1086" y="720" type="line" smooth="yes"/>
      <point x="1086" y="946"/>
      <point x="966" y="1086"/>
      <point x="772" y="1086" type="curve" smooth="yes"/>
      <point x="640" y="1086"/>
      <point x="528" y="1025"/>
      <point x="449" y="913" type="curve"/>
      <point x="440" y="913" type="line"/>
      <point x="440" y="1460" type="line"/>
      <point x="138" y="1460" type="line"/>
    </contour>
  </outline>
</glyph>
<glyph name="i" format="2">
  <advance width="1200"/>
  <unicode hex="0069"/>
  <anchor x="653" y="0" name="bottom"/>
  <anchor x="799" y="0" name="ogonek"/>
  <outline>
    <contour>
      <point x="505" y="80" type="line"/>
      <point x="801" y="80" type="line"/>
      <point x="801" y="1052" type="line"/>
      <point x="505" y="1052" type="line"/>
    </contour>
    <contour>
      <point x="167" y="0" type="line"/>
      <point x="1114" y="0" type="line"/>
      <point x="1114" y="225" type="line"/>
      <point x="167" y="225" type="line"/>
    </contour>
    <contour>
      <point x="187" y="826" type="line"/>
      <point x="761" y="826" type="line"/>
      <point x="761" y="1052" type="line"/>
      <point x="187" y="1052" type="line"/>
    </contour>
    <contour>
      <point x="622" y="1246" type="curve" smooth="yes"/>
      <point x="735" y="1246"/>
      <point x="818" y="1332"/>
      <point x="818" y="1440" type="curve" smooth="yes"/>
      <point x="818" y="1552"/>
      <point x="735" y="1633"/>
      <point x="622" y="1633" type="curve" smooth="yes"/>
      <point x="512" y="1633"/>
      <point x="424" y="1552"/>
      <point x="424" y="1440" type="curve" smooth="yes"/>
      <point x="424" y="1332"/>
      <point x="512" y="1246"/>
    </contour>
  </outline>
</glyph>
<glyph name="k" format="2">
  <advance width="1200"/>
  <unicode hex="006B"/>
  <anchor x="624" y="14" name="bottom"/>
  <outline>
    <contour>
      <point x="798" y="0" type="line"/>
      <point x="1142" y="0" type="line"/>
      <point x="689" y="626" type="line"/>
      <point x="689" y="512" type="line"/>
      <point x="1128" y="1052" type="line"/>
      <point x="782" y="1052" type="line"/>
      <point x="401" y="571" type="line"/>
      <point x="401" y="563" type="line"/>
    </contour>
    <contour>
      <point x="112" y="0" type="line"/>
      <point x="414" y="0" type="line"/>
      <point x="414" y="1460" type="line"/>
      <point x="112" y="1460" type="line"/>
    </contour>
  </outline>
</glyph>
<glyph name="s" format="2">
  <advance width="1200"/>
  <unicode hex="0073"/>
  <anchor x="641" y="0" name="bottom"/>
  <anchor x="613" y="1052" name="top"/>
  <outline>
    <contour>
      <point x="645" y="-33" type="curve" smooth="yes"/>
      <point x="891" y="-33"/>
      <point x="1053" y="97"/>
      <point x="1053" y="294" type="curve" smooth="yes"/>
      <point x="1053" y="298" type="line" smooth="yes"/>
      <point x="1053" y="473"/>
      <point x="960" y="577"/>
      <point x="751" y="635" type="curve" smooth="yes"/>
      <point x="600" y="677" type="line" smooth="yes"/>
      <point x="507" y="703"/>
      <point x="477" y="726"/>
      <point x="477" y="770" type="curve" smooth="yes"/>
      <point x="477" y="771" type="line" smooth="yes"/>
      <point x="477" y="821"/>
      <point x="524" y="850"/>
      <point x="605" y="850" type="curve" smooth="yes"/>
      <point x="707" y="850"/>
      <point x="770" y="813"/>
      <point x="795" y="740" type="curve"/>
      <point x="1048" y="825" type="line"/>
      <point x="993" y="995"/>
      <point x="846" y="1086"/>
      <point x="621" y="1086" type="curve" smooth="yes"/>
      <point x="365" y="1086"/>
      <point x="201" y="955"/>
      <point x="201" y="752" type="curve" smooth="yes"/>
      <point x="201" y="750" type="line" smooth="yes"/>
      <point x="201" y="597"/>
      <point x="298" y="492"/>
      <point x="474" y="442" type="curve" smooth="yes"/>
      <point x="625" y="399" type="line" smooth="yes"/>
      <point x="746" y="365"/>
      <point x="776" y="344"/>
      <point x="776" y="295" type="curve" smooth="yes"/>
      <point x="776" y="291" type="line" smooth="yes"/>
      <point x="776" y="238"/>
      <point x="726" y="207"/>
      <point x="641" y="207" type="curve" smooth="yes"/>
      <point x="519" y="207"/>
      <point x="430" y="263"/>
      <point x="399" y="360" type="curve"/>
      <point x="146" y="276" type="line"/>
      <point x="208" y="76"/>
      <point x="385" y="-33"/>
    </contour>
  </outline>
</glyph>
<glyph name="v" format="2">
  <advance width="1200"/>
  <unicode hex="0076"/>
  <outline>
    <contour>
      <point x="446" y="0" type="line"/>
      <point x="754" y="0" type="line"/>
      <point x="1140" y="1052" type="line"/>
      <point x="823" y="1052" type="line"/>
      <point x="675" y="574" type="line"/>
      <point x="610" y="298" type="line"/>
      <point x="601" y="298" type="line"/>
      <point x="536" y="574" type="line"/>
      <point x="380" y="1052" type="line"/>
      <point x="60" y="1052" type="line"/>
    </contour>
  </outline>
</glyph>
<glyph name="w" format="2">
  <advance width="1200"/>
  <unicode hex="0077"/>
  <anchor x="608" y="1052" name="top"/>
  <outline>
    <contour>
      <point x="223" y="0" type="line"/>
      <point x="489" y="0" type="line"/>
      <point x="580" y="505" type="line"/>
      <point x="596" y="622" type="line"/>
      <point x="603" y="622" type="line"/>
      <point x="618" y="505" type="line"/>
      <point x="710" y="0" type="line"/>
      <point x="976" y="0" type="line"/>
      <point x="1197" y="1052" type="line"/>
      <point x="947" y="1052" type="line"/>
      <point x="853" y="456" type="line"/>
      <point x="838" y="337" type="line"/>
      <point x="831" y="337" type="line"/>
      <point x="816" y="456" type="line"/>
      <point x="730" y="932" type="line"/>
      <point x="485" y="932" type="line"/>
      <point x="399" y="455" type="line"/>
      <point x="383" y="337" type="line"/>
      <point x="376" y="337" type="line"/>
      <point x="361" y="454" type="line"/>
      <point x="269" y="1052" type="line"/>
      <point x="3" y="1052" type="line"/>
    </contour>
  </outline>
</glyph>
<glyph name="y" format="2">
  <advance width="1200"/>
  <unicode hex="0079"/>
  <anchor x="937" y="0" name="bottom"/>
  <anchor x="628" y="1052" name="top"/>
  <outline>
    <contour>
      <point x="325" y="-449" type="curve" smooth="yes"/>
      <point x="523" y="-449"/>
      <point x="643" y="-354"/>
      <point x="729" y="-123" type="curve" smooth="yes"/>
      <point x="1166" y="1052" type="line"/>
      <point x="854" y="1052" type="line"/>
      <point x="706" y="574" type="line"/>
      <point x="614" y="193" type="line"/>
      <point x="557" y="193" type="line"/>
      <point x="460" y="-72" type="line" smooth="yes"/>
      <point x="431" y="-152"/>
      <point x="389" y="-183"/>
      <point x="317" y="-183" type="curve" smooth="yes"/>
      <point x="264" y="-183"/>
      <point x="220" y="-164"/>
      <point x="165" y="-119" type="curve"/>
      <point x="20" y="-343" type="line"/>
      <point x="104" y="-413"/>
      <point x="208" y="-449"/>
    </contour>
    <contour>
      <point x="511" y="-87" type="line"/>
      <point x="716" y="298" type="line"/>
      <point x="626" y="298" type="line"/>
      <point x="556" y="574" type="line"/>
      <point x="401" y="1052" type="line"/>
      <point x="87" y="1052" type="line"/>
    </contour>
  </outline>
</glyph>
<glyph name="z" format="2">
  <advance width="1200"/>
  <unicode hex="007A"/>
  <anchor x="606" y="1052" name="top"/>
  <outline>
    <contour>
      <point x="153" y="0" type="line"/>
      <point x="1047" y="0" type="line"/>
      <point x="1047" y="250" type="line"/>
      <point x="498" y="250" type="line"/>
      <point x="1037" y="814" type="line"/>
      <point x="1037" y="1052" type="line"/>
      <point x="174" y="1052" type="line"/>
      <point x="174" y="802" type="line"/>
      <point x="693" y="802" type="line"/>
      <point x="153" y="238" type="line"/>
    </contour>
  </outline>
</glyph>
<glyph name="cent" format="2">
  <advance width="1200"/>
  <unicode hex="00A2"/>
  <outline>
    <contour>
      <point x="631" y="0" type="curve" smooth="yes"/>
      <point x="868" y="0"/>
      <point x="1052" y="129"/>
      <point x="1114" y="338" type="curve"/>
      <point x="844" y="427" type="line"/>
      <point x="809" y="318"/>
      <point x="742" y="259"/>
      <point x="633" y="259" type="curve" smooth="yes"/>
      <point x="491" y="259"/>
      <point x="401" y="365"/>
      <point x="401" y="538" type="curve" smooth="yes"/>
      <point x="401" y="582" type="line" smooth="yes"/>
      <point x="401" y="755"/>
      <point x="488" y="861"/>
      <point x="631" y="861" type="curve" smooth="yes"/>
      <point x="741" y="861"/>
      <point x="805" y="805"/>
      <point x="835" y="698" type="curve"/>
      <point x="1109" y="777" type="line"/>
      <point x="1050" y="995"/>
      <point x="880" y="1120"/>
      <point x="635" y="1120" type="curve" smooth="yes"/>
      <point x="316" y="1120"/>
      <point x="104" y="900"/>
      <point x="104" y="569" type="curve" smooth="yes"/>
      <point x="104" y="551" type="line" smooth="yes"/>
      <point x="104" y="220"/>
      <point x="313" y="0"/>
    </contour>
    <contour>
      <point x="503" y="-236" type="line"/>
      <point x="758" y="-236" type="line"/>
      <point x="758" y="88" type="line"/>
      <point x="729" y="125" type="line"/>
      <point x="729" y="195" type="line"/>
      <point x="523" y="195" type="line"/>
      <point x="523" y="125" type="line"/>
      <point x="503" y="88" type="line"/>
    </contour>
    <contour>
      <point x="523" y="925" type="line"/>
      <point x="729" y="925" type="line"/>
      <point x="729" y="995" type="line"/>
      <point x="758" y="1032" type="line"/>
      <point x="758" y="1356" type="line"/>
      <point x="503" y="1356" type="line"/>
      <point x="503" y="1032" type="line"/>
      <point x="523" y="995" type="line"/>
    </contour>
  </outline>
</glyph>
<glyph name="currency" format="2">
  <advance width="1200"/>
  <unicode hex="00A4"/>
  <outline>
    <contour>
      <point x="600" y="246" type="curve" smooth="yes"/>
      <point x="853" y="246"/>
      <point x="1064" y="450"/>
      <point x="1064" y="693" type="curve" smooth="yes"/>
      <point x="1064" y="713" type="line" smooth="yes"/>
      <point x="1064" y="957"/>
      <point x="853" y="1160"/>
      <point x="600" y="1160" type="curve" smooth="yes"/>
      <point x="347" y="1160"/>
      <point x="136" y="957"/>
      <point x="136" y="713" type="curve" smooth="yes"/>
      <point x="136" y="693" type="line" smooth="yes"/>
      <point x="136" y="450"/>
      <point x="347" y="246"/>
    </contour>
    <contour>
      <point x="194" y="119" type="line"/>
      <point x="446" y="372" type="line"/>
      <point x="269" y="550" type="line"/>
      <point x="16" y="297" type="line"/>
    </contour>
    <contour>
      <point x="600" y="472" type="curve" smooth="yes"/>
      <point x="472" y="472"/>
      <point x="380" y="563"/>
      <point x="380" y="691" type="curve" smooth="yes"/>
      <point x="380" y="715" type="line" smooth="yes"/>
      <point x="380" y="843"/>
      <point x="472" y="935"/>
      <point x="600" y="935" type="curve" smooth="yes"/>
      <point x="729" y="935"/>
      <point x="820" y="843"/>
      <point x="820" y="715" type="curve" smooth="yes"/>
      <point x="820" y="691" type="line" smooth="yes"/>
      <point x="820" y="563"/>
      <point x="729" y="472"/>
    </contour>
    <contour>
      <point x="269" y="857" type="line"/>
      <point x="447" y="1035" type="line"/>
      <point x="194" y="1287" type="line"/>
      <point x="16" y="1110" type="line"/>
    </contour>
    <contour>
      <point x="1007" y="119" type="line"/>
      <point x="1184" y="297" type="line"/>
      <point x="931" y="549" type="line"/>
      <point x="754" y="372" type="line"/>
    </contour>
    <contour>
      <point x="932" y="857" type="line"/>
      <point x="1184" y="1110" type="line"/>
      <point x="1007" y="1287" type="line"/>
      <point x="754" y="1034" type="line"/>
    </contour>
  </outline>
</glyph>
<glyph name="yen" format="2">
  <advance width="1200"/>
  <unicode hex="00A5"/>
  <outline>
    <contour>
      <point x="462" y="525" type="line"/>
      <point x="738" y="525" type="line"/>
      <point x="1175" y="1432" type="line"/>
      <point x="850" y="1432" type="line"/>
      <point x="705" y="1076" type="line"/>
      <point x="609" y="773" type="line"/>
      <point x="601" y="773" type="line"/>
      <point x="502" y="1076" type="line"/>
      <point x="358" y="1432" type="line"/>
      <point x="25" y="1432" type="line"/>
    </contour>
    <contour>
      <point x="454" y="0" type="line"/>
      <point x="746" y="0" type="line"/>
      <point x="746" y="676" type="line"/>
      <point x="454" y="676" type="line"/>
    </contour>
    <contour>
      <point x="136" y="536" type="line"/>
      <point x="1065" y="536" type="line"/>
      <point x="1065" y="720" type="line"/>
      <point x="136" y="720" type="line"/>
    </contour>
    <contour>
      <point x="136" y="224" type="line"/>
      <point x="1065" y="224" type="line"/>
      <point x="1065" y="408" type="line"/>
      <point x="136" y="408" type="line"/>
    </contour>
  </outline>
</glyph>
<glyph name="brokenbar" format="2">
  <advance width="1200"/>
  <unicode hex="00A6"/>
  <outline>
    <contour>
      <point x="446" y="928" type="line"/>
      <point x="754" y="928" type="line"/>
      <point x="754" y="1778" type="line"/>
      <point x="446" y="1778" type="line"/>
    </contour>
    <contour>
      <point x="446" y="-346" type="line"/>
      <point x="754" y="-346" type="line"/>
      <point x="754" y="504" type="line"/>
      <point x="446" y="504" type="line"/>
    </contour>
  </outline>
</glyph>
<glyph name="copyright" format="2">
  <advance width="1200"/>
  <unicode hex="00A9"/>
  <outline>
    <contour>
      <point x="600" y="-34" type="curve" smooth="yes"/>
      <point x="961" y="-34"/>
      <point x="1192" y="233"/>
      <point x="1192" y="650" type="curve" smooth="yes"/>
      <point x="1192" y="782" type="line" smooth="yes"/>
      <point x="1192" y="1199"/>
      <point x="961" y="1466"/>
      <point x="600" y="1466" type="curve" smooth="yes"/>
      <point x="239" y="1466"/>
      <point x="8" y="1199"/>
      <point x="8" y="782" type="curve" smooth="yes"/>
      <point x="8" y="650" type="line" smooth="yes"/>
      <point x="8" y="233"/>
      <point x="239" y="-34"/>
    </contour>
    <contour>
      <point x="600" y="56" type="curve" smooth="yes"/>
      <point x="292" y="56"/>
      <point x="108" y="278"/>
      <point x="108" y="649" type="curve" smooth="yes"/>
      <point x="108" y="783" type="line" smooth="yes"/>
      <point x="108" y="1154"/>
      <point x="292" y="1376"/>
      <point x="600" y="1376" type="curve" smooth="yes"/>
      <point x="908" y="1376"/>
      <point x="1092" y="1154"/>
      <point x="1092" y="783" type="curve" smooth="yes"/>
      <point x="1092" y="649" type="line" smooth="yes"/>
      <point x="1092" y="278"/>
      <point x="908" y="56"/>
    </contour>
    <contour>
      <point x="618" y="291" type="curve" smooth="yes"/>
      <point x="796" y="291"/>
      <point x="911" y="405"/>
      <point x="930" y="597" type="curve"/>
      <point x="766" y="610" type="line"/>
      <point x="756" y="502"/>
      <point x="705" y="447"/>
      <point x="615" y="447" type="curve" smooth="yes"/>
      <point x="502" y="447"/>
      <point x="440" y="532"/>
      <point x="440" y="689" type="curve" smooth="yes"/>
      <point x="440" y="751" type="line" smooth="yes"/>
      <point x="440" y="908"/>
      <point x="502" y="993"/>
      <point x="615" y="993" type="curve" smooth="yes"/>
      <point x="704" y="993"/>
      <point x="756" y="938"/>
      <point x="766" y="830" type="curve"/>
      <point x="930" y="843" type="line"/>
      <point x="911" y="1036"/>
      <point x="796" y="1149"/>
      <point x="618" y="1149" type="curve" smooth="yes"/>
      <point x="409" y="1149"/>
      <point x="279" y="996"/>
      <point x="279" y="749" type="curve" smooth="yes"/>
      <point x="279" y="692" type="line" smooth="yes"/>
      <point x="279" y="445"/>
      <point x="409" y="291"/>
    </contour>
  </outline>
</glyph>
<glyph name="guillemetleft" format="2">
  <advance width="1200"/>
  <unicode hex="00AB"/>
  <outline>
    <contour>
      <point x="998" y="8" type="line"/>
      <point x="1170" y="157" type="line"/>
      <point x="848" y="532" type="line"/>
      <point x="1170" y="907" type="line"/>
      <point x="998" y="1057" type="line"/>
      <point x="517" y="532" type="line"/>
    </contour>
    <contour>
      <point x="490" y="8" type="line"/>
      <point x="664" y="154" type="line"/>
      <point x="341" y="532" type="line"/>
      <point x="664" y="910" type="line"/>
      <point x="490" y="1057" type="line"/>
      <point x="10" y="532" type="line"/>
    </contour>
  </outline>
</glyph>
<glyph name="logicalnot" format="2">
  <advance width="1200"/>
  <unicode hex="00AC"/>
  <outline>
    <contour>
      <point x="782" y="106" type="line"/>
      <point x="1076" y="106" type="line"/>
      <point x="1076" y="784" type="line"/>
      <point x="124" y="784" type="line"/>
      <point x="124" y="499" type="line"/>
      <point x="882" y="499" type="line"/>
      <point x="782" y="597" type="line"/>
    </contour>
  </outline>
</glyph>
<glyph name="twosuperior" format="2">
  <advance width="1200"/>
  <unicode hex="00B2"/>
  <outline>
    <contour>
      <point x="205" y="687" type="line"/>
      <point x="951" y="687" type="line"/>
      <point x="951" y="937" type="line"/>
      <point x="601" y="937" type="line"/>
      <point x="601" y="944" type="line"/>
      <point x="752" y="1101" type="line" smooth="yes"/>
      <point x="876" y="1230"/>
      <point x="917" y="1306"/>
      <point x="917" y="1415" type="curve" smooth="yes"/>
      <point x="917" y="1420" type="line" smooth="yes"/>
      <point x="917" y="1604"/>
      <point x="788" y="1723"/>
      <point x="585" y="1723" type="curve" smooth="yes"/>
      <point x="393" y="1723"/>
      <point x="251" y="1619"/>
      <point x="185" y="1429" type="curve"/>
      <point x="434" y="1337" type="line"/>
      <point x="466" y="1432"/>
      <point x="506" y="1471"/>
      <point x="565" y="1471" type="curve" smooth="yes"/>
      <point x="612" y="1471"/>
      <point x="640" y="1441"/>
      <point x="640" y="1394" type="curve" smooth="yes"/>
      <point x="640" y="1390" type="line" smooth="yes"/>
      <point x="640" y="1338"/>
      <point x="617" y="1299"/>
      <point x="549" y="1231" type="curve" smooth="yes"/>
      <point x="205" y="884" type="line"/>
    </contour>
  </outline>
</glyph>
<glyph name="micro" format="2">
  <advance width="1200"/>
  <unicode hex="00B5"/>
  <outline>
    <contour>
      <point x="127" y="-407" type="line"/>
      <point x="438" y="-407" type="line"/>
      <point x="419" y="122" type="line"/>
      <point x="225" y="198" type="line"/>
      <point x="259" y="55"/>
      <point x="365" y="-34"/>
      <point x="501" y="-34" type="curve" smooth="yes"/>
      <point x="612" y="-34"/>
      <point x="693" y="37"/>
      <point x="745" y="181" type="curve"/>
      <point x="755" y="181" type="line"/>
      <point x="769" y="46"/>
      <point x="860" y="-34"/>
      <point x="997" y="-34" type="curve" smooth="yes"/>
      <point x="1067" y="-34"/>
      <point x="1127" y="-17"/>
      <point x="1191" y="17" type="curve"/>
      <point x="1140" y="230" type="line"/>
      <point x="1121" y="222"/>
      <point x="1102" y="218"/>
      <point x="1084" y="218" type="curve" smooth="yes"/>
      <point x="1033" y="218"/>
      <point x="1007" y="249"/>
      <point x="1007" y="309" type="curve" smooth="yes"/>
      <point x="1007" y="1052" type="line"/>
      <point x="705" y="1052" type="line"/>
      <point x="705" y="471" type="line" smooth="yes"/>
      <point x="705" y="308"/>
      <point x="640" y="218"/>
      <point x="539" y="218" type="curve" smooth="yes"/>
      <point x="471" y="218"/>
      <point x="429" y="263"/>
      <point x="429" y="338" type="curve" smooth="yes"/>
      <point x="429" y="1052" type="line"/>
      <point x="127" y="1052" type="line"/>
    </contour>
  </outline>
</glyph>
<glyph name="onequarter" format="2">
  <advance width="1200"/>
  <unicode hex="00BC"/>
  <outline>
    <contour>
      <point x="884" y="-34" type="line"/>
      <point x="1067" y="-34" type="line"/>
      <point x="1067" y="685" type="line"/>
      <point x="861" y="685" type="line"/>
      <point x="538" y="267" type="line"/>
      <point x="538" y="82" type="line"/>
      <point x="1156" y="82" type="line"/>
      <point x="1156" y="255" type="line"/>
      <point x="979" y="255" type="line"/>
      <point x="955" y="247" type="line"/>
      <point x="735" y="247" type="line"/>
      <point x="735" y="257" type="line"/>
      <point x="883" y="449" type="line"/>
      <point x="921" y="449" type="line"/>
      <point x="893" y="483" type="line"/>
      <point x="893" y="192" type="line"/>
      <point x="884" y="172" type="line"/>
    </contour>
    <contour>
      <point x="244" y="750" type="line"/>
      <point x="456" y="750" type="line"/>
      <point x="456" y="1460" type="line"/>
      <point x="312" y="1460" type="line"/>
      <point x="6" y="1351" type="line"/>
      <point x="76" y="1155" type="line"/>
      <point x="244" y="1219" type="line"/>
    </contour>
    <contour>
      <point x="85" y="-34" type="line"/>
      <point x="258" y="-34" type="line"/>
      <point x="1119" y="1460" type="line"/>
      <point x="946" y="1460" type="line"/>
    </contour>
  </outline>
</glyph>
<glyph name="onehalf" format="2">
  <advance width="1200"/>
  <unicode hex="00BD"/>
  <outline>
    <contour>
      <point x="55" y="-34" type="line"/>
      <point x="229" y="-34" type="line"/>
      <point x="1089" y="1460" type="line"/>
      <point x="916" y="1460" type="line"/>
    </contour>
    <contour>
      <point x="616" y="-34" type="line"/>
      <point x="1166" y="-34" type="line"/>
      <point x="1166" y="152" type="line"/>
      <point x="930" y="152" type="line"/>
      <point x="930" y="160" type="line"/>
      <point x="1016" y="221" type="line" smooth="yes"/>
      <point x="1117" y="293"/>
      <point x="1157" y="360"/>
      <point x="1157" y="454" type="curve" smooth="yes"/>
      <point x="1157" y="458" type="line" smooth="yes"/>
      <point x="1157" y="591"/>
      <point x="1064" y="690"/>
      <point x="906" y="690" type="curve" smooth="yes"/>
      <point x="741" y="690"/>
      <point x="618" y="583"/>
      <point x="600" y="429" type="curve"/>
      <point x="799" y="408" type="line"/>
      <point x="806" y="471"/>
      <point x="838" y="502"/>
      <point x="892" y="502" type="curve" smooth="yes"/>
      <point x="934" y="502"/>
      <point x="958" y="479"/>
      <point x="958" y="443" type="curve" smooth="yes"/>
      <point x="958" y="440" type="line" smooth="yes"/>
      <point x="958" y="403"/>
      <point x="935" y="376"/>
      <point x="865" y="325" type="curve" smooth="yes"/>
      <point x="616" y="143" type="line"/>
    </contour>
    <contour>
      <point x="240" y="750" type="line"/>
      <point x="452" y="750" type="line"/>
      <point x="452" y="1460" type="line"/>
      <point x="308" y="1460" type="line"/>
      <point x="2" y="1351" type="line"/>
      <point x="72" y="1155" type="line"/>
      <point x="240" y="1219" type="line"/>
    </contour>
  </outline>
</glyph>
<glyph name="threequarters" format="2">
  <advance width="1200"/>
  <unicode hex="00BE"/>
  <outline>
    <contour>
      <point x="888" y="-34" type="line"/>
      <point x="1070" y="-34" type="line"/>
      <point x="1070" y="685" type="line"/>
      <point x="864" y="685" type="line"/>
      <point x="541" y="267" type="line"/>
      <point x="541" y="82" type="line"/>
      <point x="1159" y="82" type="line"/>
      <point x="1159" y="255" type="line"/>
      <point x="982" y="255" type="line"/>
      <point x="958" y="247" type="line"/>
      <point x="738" y="247" type="line"/>
      <point x="738" y="257" type="line"/>
      <point x="886" y="449" type="line"/>
      <point x="924" y="449" type="line"/>
      <point x="896" y="483" type="line"/>
      <point x="896" y="192" type="line"/>
      <point x="888" y="172" type="line"/>
    </contour>
    <contour>
      <point x="303" y="718" type="curve" smooth="yes"/>
      <point x="451" y="718"/>
      <point x="557" y="806"/>
      <point x="557" y="925" type="curve" smooth="yes"/>
      <point x="557" y="929" type="line" smooth="yes"/>
      <point x="557" y="1011"/>
      <point x="514" y="1069"/>
      <point x="422" y="1095" type="curve"/>
      <point x="422" y="1104" type="line"/>
      <point x="500" y="1133"/>
      <point x="544" y="1191"/>
      <point x="544" y="1267" type="curve" smooth="yes"/>
      <point x="544" y="1271" type="line" smooth="yes"/>
      <point x="544" y="1389"/>
      <point x="453" y="1460"/>
      <point x="303" y="1460" type="curve" smooth="yes"/>
      <point x="148" y="1460"/>
      <point x="49" y="1396"/>
      <point x="17" y="1285" type="curve"/>
      <point x="203" y="1235" type="line"/>
      <point x="212" y="1270"/>
      <point x="240" y="1289"/>
      <point x="284" y="1289" type="curve" smooth="yes"/>
      <point x="334" y="1289"/>
      <point x="357" y="1267"/>
      <point x="357" y="1225" type="curve" smooth="yes"/>
      <point x="357" y="1219" type="line" smooth="yes"/>
      <point x="357" y="1172"/>
      <point x="323" y="1148"/>
      <point x="260" y="1148" type="curve" smooth="yes"/>
      <point x="161" y="1148" type="line"/>
      <point x="161" y="1036" type="line"/>
      <point x="266" y="1036" type="line" smooth="yes"/>
      <point x="340" y="1036"/>
      <point x="370" y="1012"/>
      <point x="370" y="964" type="curve" smooth="yes"/>
      <point x="370" y="958" type="line" smooth="yes"/>
      <point x="370" y="916"/>
      <point x="340" y="889"/>
      <point x="292" y="889" type="curve" smooth="yes"/>
      <point x="238" y="889"/>
      <point x="207" y="915"/>
      <point x="194" y="959" type="curve"/>
      <point x="11" y="901" type="line"/>
      <point x="44" y="784"/>
      <point x="149" y="718"/>
    </contour>
    <contour>
      <point x="73" y="-34" type="line"/>
      <point x="251" y="-34" type="line"/>
      <point x="1188" y="1460" type="line"/>
      <point x="1011" y="1460" type="line"/>
    </contour>
  </outline>
</glyph>
<glyph name="ae" format="2">
  <advance width="1200"/>
  <unicode hex="00E6"/>
  <anchor x="619" y="1052" name="top"/>
  <outline>
    <contour>
      <point x="320" y="-34" type="curve" smooth="yes"/>
      <point x="493" y="-34"/>
      <point x="598" y="73"/>
      <point x="657" y="310" type="curve"/>
      <point x="522" y="310" type="line"/>
      <point x="551" y="102"/>
      <point x="680" y="-34"/>
      <point x="855" y="-34" type="curve" smooth="yes"/>
      <point x="1008" y="-34"/>
      <point x="1111" y="55"/>
      <point x="1183" y="255" type="curve"/>
      <point x="969" y="337" type="line"/>
      <point x="928" y="225"/>
      <point x="899" y="188"/>
      <point x="842" y="188" type="curve" smooth="yes"/>
      <point x="751" y="188"/>
      <point x="706" y="304"/>
      <point x="706" y="504" type="curve" smooth="yes"/>
      <point x="706" y="533" type="line" smooth="yes"/>
      <point x="706" y="745"/>
      <point x="752" y="858"/>
      <point x="839" y="858" type="curve" smooth="yes"/>
      <point x="908" y="858"/>
      <point x="944" y="778"/>
      <point x="944" y="624" type="curve"/>
      <point x="963" y="631" type="line"/>
      <point x="605" y="631" type="line"/>
      <point x="605" y="455" type="line"/>
      <point x="1185" y="455" type="line"/>
      <point x="1189" y="510"/>
      <point x="1190" y="551"/>
      <point x="1190" y="600" type="curve" smooth="yes"/>
      <point x="1190" y="912"/>
      <point x="1076" y="1086"/>
      <point x="872" y="1086" type="curve" smooth="yes"/>
      <point x="719" y="1086"/>
      <point x="598" y="980"/>
      <point x="547" y="799" type="curve"/>
      <point x="664" y="799" type="line"/>
      <point x="625" y="989"/>
      <point x="525" y="1086"/>
      <point x="369" y="1086" type="curve" smooth="yes"/>
      <point x="244" y="1086"/>
      <point x="135" y="1030"/>
      <point x="47" y="920" type="curve"/>
      <point x="212" y="770" type="line"/>
      <point x="261" y="830"/>
      <point x="305" y="856"/>
      <point x="355" y="856" type="curve" smooth="yes"/>
      <point x="429" y="856"/>
      <point x="460" y="806"/>
      <point x="460" y="689" type="curve" smooth="yes"/>
      <point x="460" y="363" type="line" smooth="yes"/>
      <point x="460" y="243"/>
      <point x="432" y="186"/>
      <point x="372" y="186" type="curve" smooth="yes"/>
      <point x="315" y="186"/>
      <point x="283" y="233"/>
      <point x="283" y="319" type="curve" smooth="yes"/>
      <point x="283" y="334" type="line" smooth="yes"/>
      <point x="283" y="430"/>
      <point x="321" y="483"/>
      <point x="390" y="483" type="curve" smooth="yes"/>
      <point x="427" y="483"/>
      <point x="455" y="473"/>
      <point x="484" y="451" type="curve"/>
      <point x="484" y="627" type="line"/>
      <point x="446" y="651"/>
      <point x="392" y="665"/>
      <point x="336" y="665" type="curve" smooth="yes"/>
      <point x="140" y="665"/>
      <point x="8" y="523"/>
      <point x="8" y="311" type="curve" smooth="yes"/>
      <point x="8" y="300" type="line" smooth="yes"/>
      <point x="8" y="97"/>
      <point x="130" y="-34"/>
    </contour>
  </outline>
</glyph>
<glyph name="eth" format="2">
  <advance width="1200"/>
  <unicode hex="00F0"/>
  <outline>
    <contour>
      <point x="603" y="-34" type="curve" smooth="yes"/>
      <point x="912" y="-34"/>
      <point x="1127" y="167"/>
      <point x="1127" y="586" type="curve" smooth="yes"/>
      <point x="1127" y="598" type="line" smooth="yes"/>
      <point x="1127" y="1061"/>
      <point x="927" y="1385"/>
      <point x="490" y="1636" type="curve"/>
      <point x="381" y="1456" type="line"/>
      <point x="679" y="1290"/>
      <point x="796" y="1138"/>
      <point x="833" y="869" type="curve"/>
      <point x="794" y="858" type="line"/>
      <point x="844" y="825" type="line"/>
      <point x="796" y="942"/>
      <point x="702" y="1018"/>
      <point x="548" y="1018" type="curve" smooth="yes"/>
      <point x="276" y="1018"/>
      <point x="92" y="806"/>
      <point x="92" y="510" type="curve" smooth="yes"/>
      <point x="92" y="498" type="line" smooth="yes"/>
      <point x="92" y="188"/>
      <point x="304" y="-34"/>
    </contour>
    <contour>
      <point x="609" y="232" type="curve" smooth="yes"/>
      <point x="473" y="232"/>
      <point x="391" y="339"/>
      <point x="391" y="506" type="curve" smooth="yes"/>
      <point x="391" y="511" type="line" smooth="yes"/>
      <point x="391" y="679"/>
      <point x="473" y="786"/>
      <point x="609" y="786" type="curve" smooth="yes"/>
      <point x="746" y="786"/>
      <point x="828" y="679"/>
      <point x="828" y="511" type="curve" smooth="yes"/>
      <point x="828" y="506" type="line" smooth="yes"/>
      <point x="828" y="339"/>
      <point x="746" y="232"/>
    </contour>
    <contour>
      <point x="285" y="1110" type="line"/>
      <point x="765" y="1227" type="line"/>
      <point x="662" y="1376" type="line"/>
      <point x="243" y="1285" type="line"/>
    </contour>
    <contour>
      <point x="803" y="1251" type="line"/>
      <point x="1121" y="1318" type="line"/>
      <point x="1078" y="1493" type="line"/>
      <point x="701" y="1400" type="line"/>
    </contour>
  </outline>
</glyph>
<glyph name="divide" format="2">
  <advance width="1200"/>
  <unicode hex="00F7"/>
  <outline>
    <contour>
      <point x="124" y="499" type="line"/>
      <point x="1076" y="499" type="line"/>
      <point x="1076" y="784" type="line"/>
      <point x="124" y="784" type="line"/>
    </contour>
    <contour>
      <point x="600" y="880" type="curve" smooth="yes"/>
      <point x="702" y="880"/>
      <point x="780" y="958"/>
      <point x="780" y="1060" type="curve" smooth="yes"/>
      <point x="780" y="1162"/>
      <point x="702" y="1240"/>
      <point x="600" y="1240" type="curve" smooth="yes"/>
      <point x="498" y="1240"/>
      <point x="420" y="1161"/>
      <point x="420" y="1060" type="curve" smooth="yes"/>
      <point x="420" y="958"/>
      <point x="498" y="880"/>
    </contour>
    <contour>
      <point x="600" y="43" type="curve" smooth="yes"/>
      <point x="702" y="43"/>
      <point x="780" y="121"/>
      <point x="780" y="223" type="curve" smooth="yes"/>
      <point x="780" y="325"/>
      <point x="702" y="403"/>
      <point x="600" y="403" type="curve" smooth="yes"/>
      <point x="498" y="403"/>
      <point x="420" y="324"/>
      <point x="420" y="223" type="curve" smooth="yes"/>
      <point x="420" y="122"/>
      <point x="498" y="43"/>
    </contour>
  </outline>
</glyph>
<glyph name="oslash" format="2">
  <advance width="1200"/>
  <unicode hex="00F8"/>
  <guideline x="78" y="515" angle="90"/>
  <outline>
    <contour>
      <point x="236" y="-182" type="line"/>
      <point x="1132" y="1128" type="line"/>
      <point x="965" y="1235" type="line"/>
      <point x="68" y="-76" type="line"/>
    </contour>
    <contour>
      <point x="608" y="-34" type="curve" smooth="yes"/>
      <point x="912" y="-34"/>
      <point x="1128" y="196"/>
      <point x="1128" y="515" type="curve" smooth="yes"/>
      <point x="1128" y="537" type="line" smooth="yes"/>
      <point x="1128" y="830"/>
      <point x="885" y="1086"/>
      <point x="592" y="1086" type="curve" smooth="yes"/>
      <point x="288" y="1086"/>
      <point x="72" y="858"/>
      <point x="72" y="537" type="curve" smooth="yes"/>
      <point x="72" y="515" type="line" smooth="yes"/>
      <point x="72" y="224"/>
      <point x="315" y="-34"/>
    </contour>
    <contour>
      <point x="600" y="186" type="curve" smooth="yes"/>
      <point x="413" y="186"/>
      <point x="332" y="273"/>
      <point x="332" y="503" type="curve" smooth="yes"/>
      <point x="332" y="517" type="line" smooth="yes"/>
      <point x="332" y="739"/>
      <point x="434" y="866"/>
      <point x="600" y="866" type="curve" smooth="yes"/>
      <point x="787" y="866"/>
      <point x="868" y="779"/>
      <point x="868" y="549" type="curve" smooth="yes"/>
      <point x="868" y="535" type="line" smooth="yes"/>
      <point x="868" y="313"/>
      <point x="766" y="186"/>
    </contour>
  </outline>
</glyph>
<glyph name="thorn" format="2">
  <advance width="1200"/>
  <unicode hex="00FE"/>
  <outline>
    <contour>
      <point x="118" y="-408" type="line"/>
      <point x="420" y="-408" type="line"/>
      <point x="420" y="146" type="line"/>
      <point x="429" y="146" type="line"/>
      <point x="500" y="26"/>
      <point x="599" y="-34"/>
      <point x="728" y="-34" type="curve" smooth="yes"/>
      <point x="956" y="-34"/>
      <point x="1108" y="186"/>
      <point x="1108" y="518" type="curve" smooth="yes"/>
      <point x="1108" y="534" type="line" smooth="yes"/>
      <point x="1108" y="867"/>
      <point x="956" y="1086"/>
      <point x="728" y="1086" type="curve" smooth="yes"/>
      <point x="600" y="1086"/>
      <point x="491" y="1018"/>
      <point x="429" y="899" type="curve"/>
      <point x="420" y="899" type="line"/>
      <point x="420" y="1460" type="line"/>
      <point x="118" y="1460" type="line"/>
    </contour>
    <contour>
      <point x="613" y="216" type="curve" smooth="yes"/>
      <point x="490" y="216"/>
      <point x="411" y="335"/>
      <point x="411" y="519" type="curve" smooth="yes"/>
      <point x="411" y="534" type="line" smooth="yes"/>
      <point x="411" y="718"/>
      <point x="490" y="836"/>
      <point x="614" y="836" type="curve" smooth="yes"/>
      <point x="737" y="836"/>
      <point x="806" y="729"/>
      <point x="806" y="539" type="curve" smooth="yes"/>
      <point x="806" y="514" type="line" smooth="yes"/>
      <point x="806" y="324"/>
      <point x="736" y="216"/>
    </contour>
  </outline>
</glyph>
<glyph name="aogonek" format="2">
  <advance width="1200"/>
  <unicode hex="0105"/>
  <anchor x="602" y="-34" name="bottom"/>
  <anchor x="1062" y="0" name="ogonek"/>
  <anchor x="610" y="1052" name="top"/>
  <outline>
    <contour>
      <point x="913" y="-548" type="curve" smooth="yes"/>
      <point x="989" y="-548"/>
      <point x="1053" y="-531"/>
      <point x="1116" y="-495" type="curve"/>
      <point x="1055" y="-308" type="line"/>
      <point x="1026" y="-322"/>
      <point x="1001" y="-328"/>
      <point x="970" y="-328" type="curve" smooth="yes"/>
      <point x="903" y="-328"/>
      <point x="856" y="-286"/>
      <point x="856" y="-224" type="curve" smooth="yes"/>
      <point x="856" y="-139"/>
      <point x="916" y="-75"/>
      <point x="1062" y="0" type="curve"/>
      <point x="999" y="112" type="line"/>
      <point x="740" y="17"/>
      <point x="623" y="-107"/>
      <point x="623" y="-271" type="curve" smooth="yes"/>
      <point x="623" y="-429"/>
      <point x="747" y="-548"/>
    </contour>
    <component base="a"/>
  </outline>
</glyph>
<glyph name="dcaron" format="2">
  <advance width="1200"/>
  <unicode hex="010F"/>
  <outline>
    <contour>
      <point x="390" y="-34" type="curve" smooth="yes"/>
      <point x="497" y="-34"/>
      <point x="577" y="37"/>
      <point x="625" y="155" type="curve"/>
      <point x="634" y="155" type="line"/>
      <point x="634" y="0" type="line"/>
      <point x="902" y="0" type="line"/>
      <point x="902" y="1460" type="line"/>
      <point x="624" y="1460" type="line"/>
      <point x="624" y="908" type="line"/>
      <point x="615" y="908" type="line"/>
      <point x="565" y="1025"/>
      <point x="489" y="1086"/>
      <point x="382" y="1086" type="curve" smooth="yes"/>
      <point x="187" y="1086"/>
      <point x="44" y="888"/>
      <point x="44" y="544" type="curve" smooth="yes"/>
      <point x="44" y="509" type="line" smooth="yes"/>
      <point x="44" y="168"/>
      <point x="195" y="-34"/>
    </contour>
    <contour>
      <point x="483" y="209" type="curve" smooth="yes"/>
      <point x="388" y="209"/>
      <point x="330" y="315"/>
      <point x="330" y="504" type="curve" smooth="yes"/>
      <point x="330" y="548" type="line" smooth="yes"/>
      <point x="330" y="738"/>
      <point x="387" y="844"/>
      <point x="483" y="844" type="curve" smooth="yes"/>
      <point x="575" y="844"/>
      <point x="633" y="734"/>
      <point x="633" y="548" type="curve" smooth="yes"/>
      <point x="633" y="504" type="line" smooth="yes"/>
      <point x="633" y="318"/>
      <point x="575" y="209"/>
    </contour>
    <contour>
      <point x="976" y="932" type="line"/>
      <point x="1184" y="932" type="line"/>
      <point x="1237" y="1460" type="line"/>
      <point x="996" y="1460" type="line"/>
    </contour>
  </outline>
</glyph>
<glyph name="Dcroat" format="2">
  <advance width="1200"/>
  <unicode hex="0110"/>
  <outline>
    <contour>
      <point x="176" y="0" type="line"/>
      <point x="576" y="0" type="line" smooth="yes"/>
      <point x="942" y="0"/>
      <point x="1161" y="260"/>
      <point x="1161" y="694" type="curve" smooth="yes"/>
      <point x="1161" y="738" type="line" smooth="yes"/>
      <point x="1161" y="1172"/>
      <point x="942" y="1432"/>
      <point x="576" y="1432" type="curve" smooth="yes"/>
      <point x="176" y="1432" type="line"/>
    </contour>
    <contour>
      <point x="31" y="599" type="line"/>
      <point x="721" y="599" type="line"/>
      <point x="721" y="871" type="line"/>
      <point x="31" y="871" type="line"/>
    </contour>
    <contour>
      <point x="444" y="278" type="line"/>
      <point x="444" y="1154" type="line"/>
      <point x="575" y="1154" type="line" smooth="yes"/>
      <point x="788" y="1154"/>
      <point x="877" y="1019"/>
      <point x="877" y="743" type="curve" smooth="yes"/>
      <point x="877" y="689" type="line" smooth="yes"/>
      <point x="877" y="414"/>
      <point x="788" y="278"/>
      <point x="575" y="278" type="curve" smooth="yes"/>
    </contour>
  </outline>
</glyph>
<glyph name="dcroat" format="2">
  <advance width="1200"/>
  <unicode hex="0111"/>
  <outline>
    <contour>
      <point x="470" y="-34" type="curve" smooth="yes"/>
      <point x="597" y="-34"/>
      <point x="701" y="36"/>
      <point x="760" y="156" type="curve"/>
      <point x="769" y="156" type="line"/>
      <point x="769" y="0" type="line"/>
      <point x="1045" y="0" type="line"/>
      <point x="1045" y="1510" type="line"/>
      <point x="767" y="1510" type="line"/>
      <point x="767" y="811" type="line"/>
      <point x="758" y="811" type="line"/>
      <point x="694" y="936"/>
      <point x="600" y="1003"/>
      <point x="462" y="1003" type="curve" smooth="yes"/>
      <point x="232" y="1003"/>
      <point x="70" y="789"/>
      <point x="70" y="492" type="curve" smooth="yes"/>
      <point x="70" y="477" type="line" smooth="yes"/>
      <point x="70" y="180"/>
      <point x="241" y="-34"/>
    </contour>
    <contour>
      <point x="567" y="217" type="curve" smooth="yes"/>
      <point x="440" y="217"/>
      <point x="364" y="319"/>
      <point x="364" y="481" type="curve" smooth="yes"/>
      <point x="364" y="504" type="line" smooth="yes"/>
      <point x="364" y="666"/>
      <point x="440" y="768"/>
      <point x="567" y="768" type="curve" smooth="yes"/>
      <point x="689" y="768"/>
      <point x="767" y="658"/>
      <point x="767" y="499" type="curve" smooth="yes"/>
      <point x="767" y="485" type="line" smooth="yes"/>
      <point x="767" y="326"/>
      <point x="688" y="217"/>
    </contour>
    <contour>
      <point x="429" y="1144" type="line"/>
      <point x="1219" y="1144" type="line"/>
      <point x="1219" y="1347" type="line"/>
      <point x="429" y="1347" type="line"/>
    </contour>
  </outline>
</glyph>
<glyph name="idotless" format="2">
  <advance width="1200"/>
  <unicode hex="0131"/>
  <anchor x="799" y="0" name="ogonek"/>
  <anchor x="653" y="1052" name="top"/>
  <outline>
    <contour>
      <point x="505" y="0" type="line"/>
      <point x="801" y="0" type="line"/>
      <point x="801" y="1052" type="line"/>
      <point x="505" y="1052" type="line"/>
    </contour>
    <contour>
      <point x="167" y="0" type="line"/>
      <point x="1114" y="0" type="line"/>
      <point x="1114" y="225" type="line"/>
      <point x="167" y="225" type="line"/>
    </contour>
    <contour>
      <point x="187" y="826" type="line"/>
      <point x="761" y="826" type="line"/>
      <point x="761" y="1052" type="line"/>
      <point x="187" y="1052" type="line"/>
    </contour>
  </outline>
</glyph>
<glyph name="kgreenlandic" format="2">
  <advance width="1200"/>
  <unicode hex="0138"/>
  <outline>
    <contour>
      <point x="798" y="0" type="line"/>
      <point x="1142" y="0" type="line"/>
      <point x="689" y="626" type="line"/>
      <point x="689" y="512" type="line"/>
      <point x="1128" y="1052" type="line"/>
      <point x="782" y="1052" type="line"/>
      <point x="401" y="571" type="line"/>
      <point x="401" y="563" type="line"/>
    </contour>
    <contour>
      <point x="112" y="0" type="line"/>
      <point x="414" y="0" type="line"/>
      <point x="414" y="1052" type="line"/>
      <point x="112" y="1052" type="line"/>
    </contour>
  </outline>
</glyph>
<glyph name="Lcaron" format="2">
  <advance width="1200"/>
  <unicode hex="013D"/>
  <anchor x="635" y="0" name="bottom"/>
  <anchor x="316" y="1432" name="top"/>
  <outline>
    <contour>
      <point x="664" y="888" type="line"/>
      <point x="916" y="888" type="line"/>
      <point x="1019" y="1432" type="line"/>
      <point x="707" y="1432" type="line"/>
    </contour>
    <component base="L"/>
  </outline>
</glyph>
<glyph name="lcaron" format="2">
  <advance width="1200"/>
  <unicode hex="013E"/>
  <outline>
    <contour>
      <point x="775" y="-34" type="curve" smooth="yes"/>
      <point x="915" y="-34"/>
      <point x="1021" y="5"/>
      <point x="1116" y="92" type="curve"/>
      <point x="958" y="306" type="line"/>
      <point x="905" y="255"/>
      <point x="860" y="236"/>
      <point x="804" y="236" type="curve" smooth="yes"/>
      <point x="705" y="236"/>
      <point x="651" y="296"/>
      <point x="651" y="412" type="curve" smooth="yes"/>
      <point x="651" y="1460" type="line"/>
      <point x="347" y="1460" type="line"/>
      <point x="347" y="390" type="line" smooth="yes"/>
      <point x="347" y="124"/>
      <point x="507" y="-34"/>
    </contour>
    <contour>
      <point x="81" y="1226" type="line"/>
      <point x="575" y="1226" type="line"/>
      <point x="575" y="1460" type="line"/>
      <point x="81" y="1460" type="line"/>
    </contour>
    <contour>
      <point x="789" y="916" type="line"/>
      <point x="1015" y="916" type="line"/>
      <point x="1117" y="1460" type="line"/>
      <point x="831" y="1460" type="line"/>
    </contour>
  </outline>
</glyph>
<glyph name="lslash" format="2">
  <advance width="1200"/>
  <unicode hex="0142"/>
  <anchor x="757" y="-34" name="bottom"/>
  <anchor x="515" y="1460" name="top"/>
  <outline>
    <contour>
      <point x="97" y="411" type="line"/>
      <point x="499" y="629" type="line"/>
      <point x="559" y="627" type="line"/>
      <point x="1012" y="867" type="line"/>
      <point x="1012" y="1149" type="line"/>
      <point x="561" y="907" type="line"/>
      <point x="501" y="909" type="line"/>
      <point x="97" y="693" type="line"/>
    </contour>
    <component base="l"/>
  </outline>
</glyph>
<glyph name="napostrophe" format="2">
  <advance width="1200"/>
  <unicode hex="0149"/>
  <outline>
    <contour>
      <point x="332" y="0" type="line"/>
      <point x="612" y="0" type="line"/>
      <point x="612" y="653" type="line" smooth="yes"/>
      <point x="612" y="763"/>
      <point x="670" y="836"/>
      <point x="761" y="836" type="curve" smooth="yes"/>
      <point x="839" y="836"/>
      <point x="879" y="786"/>
      <point x="879" y="691" type="curve" smooth="yes"/>
      <point x="879" y="0" type="line"/>
      <point x="1159" y="0" type="line"/>
      <point x="1159" y="756" type="line" smooth="yes"/>
      <point x="1159" y="956"/>
      <point x="1067" y="1086"/>
      <point x="898" y="1086" type="curve" smooth="yes"/>
      <point x="777" y="1086"/>
      <point x="675" y="1023"/>
      <point x="606" y="903" type="curve"/>
      <point x="598" y="903" type="line"/>
      <point x="598" y="1052" type="line"/>
      <point x="332" y="1052" type="line"/>
    </contour>
    <contour>
      <point x="-4" y="882" type="line"/>
      <point x="234" y="882" type="line"/>
      <point x="493" y="1460" type="line"/>
      <point x="181" y="1460" type="line"/>
    </contour>
  </outline>
</glyph>
<glyph name="Eng" format="2">
  <advance width="1200"/>
  <unicode hex="014A"/>
  <outline>
    <contour>
      <point x="699" y="-465" type="curve" smooth="yes"/>
      <point x="958" y="-465"/>
      <point x="1133" y="-280"/>
      <point x="1133" y="-4" type="curve" smooth="yes"/>
      <point x="1133" y="1046" type="line" smooth="yes"/>
      <point x="1133" y="1303"/>
      <point x="1000" y="1466"/>
      <point x="777" y="1466" type="curve" smooth="yes"/>
      <point x="610" y="1466"/>
      <point x="486" y="1382"/>
      <point x="399" y="1236" type="curve"/>
      <point x="390" y="1236" type="line"/>
      <point x="390" y="1432" type="line"/>
      <point x="97" y="1432" type="line"/>
      <point x="97" y="0" type="line"/>
      <point x="405" y="0" type="line"/>
      <point x="405" y="903" type="line" smooth="yes"/>
      <point x="405" y="1068"/>
      <point x="501" y="1176"/>
      <point x="640" y="1176" type="curve" smooth="yes"/>
      <point x="763" y="1176"/>
      <point x="825" y="1097"/>
      <point x="825" y="951" type="curve" smooth="yes"/>
      <point x="825" y="-15" type="line" smooth="yes"/>
      <point x="825" y="-117"/>
      <point x="773" y="-175"/>
      <point x="679" y="-175" type="curve" smooth="yes"/>
      <point x="615" y="-175"/>
      <point x="557" y="-153"/>
      <point x="498" y="-103" type="curve"/>
      <point x="334" y="-341" type="line"/>
      <point x="436" y="-422"/>
      <point x="560" y="-465"/>
    </contour>
  </outline>
</glyph>
<glyph name="eng" format="2">
  <advance width="1200"/>
  <unicode hex="014B"/>
  <outline>
    <contour>
      <point x="712" y="-449" type="curve" smooth="yes"/>
      <point x="946" y="-449"/>
      <point x="1086" y="-302"/>
      <point x="1086" y="-57" type="curve" smooth="yes"/>
      <point x="1086" y="721" type="line" smooth="yes"/>
      <point x="1086" y="946"/>
      <point x="966" y="1086"/>
      <point x="772" y="1086" type="curve" smooth="yes"/>
      <point x="632" y="1086"/>
      <point x="515" y="1019"/>
      <point x="434" y="892" type="curve"/>
      <point x="425" y="892" type="line"/>
      <point x="425" y="1052" type="line"/>
      <point x="138" y="1052" type="line"/>
      <point x="138" y="0" type="line"/>
      <point x="440" y="0" type="line"/>
      <point x="440" y="616" type="line" smooth="yes"/>
      <point x="440" y="746"/>
      <point x="517" y="834"/>
      <point x="632" y="834" type="curve" smooth="yes"/>
      <point x="731" y="834"/>
      <point x="784" y="771"/>
      <point x="784" y="655" type="curve" smooth="yes"/>
      <point x="784" y="-62" type="line" smooth="yes"/>
      <point x="784" y="-140"/>
      <point x="748" y="-183"/>
      <point x="681" y="-183" type="curve" smooth="yes"/>
      <point x="637" y="-183"/>
      <point x="600" y="-169"/>
      <point x="550" y="-131" type="curve"/>
      <point x="408" y="-355" type="line"/>
      <point x="490" y="-417"/>
      <point x="592" y="-449"/>
    </contour>
  </outline>
</glyph>
<glyph name="OE" format="2">
  <advance width="1200"/>
  <unicode hex="0152"/>
  <outline>
    <contour>
      <point x="394" y="-34" type="curve" smooth="yes"/>
      <point x="528" y="-34"/>
      <point x="616" y="69"/>
      <point x="657" y="251" type="curve"/>
      <point x="671" y="251" type="line"/>
      <point x="679" y="0" type="line"/>
      <point x="1183" y="0" type="line"/>
      <point x="1183" y="277" type="line"/>
      <point x="851" y="277" type="line"/>
      <point x="851" y="1155" type="line"/>
      <point x="1167" y="1155" type="line"/>
      <point x="1167" y="1432" type="line"/>
      <point x="679" y="1432" type="line"/>
      <point x="671" y="1181" type="line"/>
      <point x="657" y="1181" type="line"/>
      <point x="616" y="1363"/>
      <point x="528" y="1466"/>
      <point x="394" y="1466" type="curve" smooth="yes"/>
      <point x="165" y="1466"/>
      <point x="30" y="1218"/>
      <point x="30" y="762" type="curve" smooth="yes"/>
      <point x="30" y="670" type="line" smooth="yes"/>
      <point x="30" y="215"/>
      <point x="165" y="-34"/>
    </contour>
    <contour>
      <point x="454" y="253" type="curve" smooth="yes"/>
      <point x="355" y="253"/>
      <point x="315" y="392"/>
      <point x="315" y="665" type="curve" smooth="yes"/>
      <point x="315" y="767" type="line" smooth="yes"/>
      <point x="315" y="1041"/>
      <point x="355" y="1180"/>
      <point x="454" y="1180" type="curve" smooth="yes"/>
      <point x="553" y="1180"/>
      <point x="592" y="1042"/>
      <point x="592" y="769" type="curve" smooth="yes"/>
      <point x="592" y="663" type="line" smooth="yes"/>
      <point x="592" y="391"/>
      <point x="553" y="253"/>
    </contour>
    <contour>
      <point x="746" y="594" type="line"/>
      <point x="1121" y="594" type="line"/>
      <point x="1121" y="867" type="line"/>
      <point x="746" y="867" type="line"/>
    </contour>
  </outline>
</glyph>
<glyph name="tcaron" format="2">
  <advance width="1200"/>
  <unicode hex="0165"/>
  <outline>
    <contour>
      <point x="774" y="-34" type="curve" smooth="yes"/>
      <point x="907" y="-34"/>
      <point x="1021" y="7"/>
      <point x="1113" y="87" type="curve"/>
      <point x="969" y="308" type="line"/>
      <point x="914" y="258"/>
      <point x="865" y="237"/>
      <point x="804" y="237" type="curve" smooth="yes"/>
      <point x="694" y="237"/>
      <point x="641" y="301"/>
      <point x="641" y="433" type="curve" smooth="yes"/>
      <point x="641" y="1326" type="line"/>
      <point x="339" y="1326" type="line"/>
      <point x="339" y="413" type="line" smooth="yes"/>
      <point x="339" y="128"/>
      <point x="495" y="-34"/>
    </contour>
    <contour>
      <point x="91" y="784" type="line"/>
      <point x="1051" y="784" type="line"/>
      <point x="1051" y="1012" type="line"/>
      <point x="91" y="1012" type="line"/>
    </contour>
    <contour>
      <point x="776" y="1133" type="line"/>
      <point x="988" y="1133" type="line"/>
      <point x="1072" y="1575" type="line"/>
      <point x="810" y="1575" type="line"/>
    </contour>
  </outline>
</glyph>
<glyph name="Uogonek" format="2">
  <advance width="1200"/>
  <unicode hex="0172"/>
  <outline>
    <contour>
      <point x="702" y="-547" type="curve" smooth="yes"/>
      <point x="776" y="-547"/>
      <point x="840" y="-530"/>
      <point x="902" y="-495" type="curve"/>
      <point x="844" y="-308" type="line"/>
      <point x="815" y="-322"/>
      <point x="790" y="-327"/>
      <point x="759" y="-327" type="curve" smooth="yes"/>
      <point x="692" y="-327"/>
      <point x="645" y="-285"/>
      <point x="645" y="-222" type="curve" smooth="yes"/>
      <point x="645" y="-146"/>
      <point x="691" y="-90"/>
      <point x="823" y="-6" type="curve" smooth="yes"/>
      <point x="1014" y="116"/>
      <point x="1098" y="260"/>
      <point x="1098" y="466" type="curve" smooth="yes"/>
      <point x="1098" y="1432" type="line"/>
      <point x="790" y="1432" type="line"/>
      <point x="790" y="474" type="line" smooth="yes"/>
      <point x="790" y="341"/>
      <point x="719" y="256"/>
      <point x="600" y="256" type="curve" smooth="yes"/>
      <point x="481" y="256"/>
      <point x="410" y="341"/>
      <point x="410" y="474" type="curve" smooth="yes"/>
      <point x="410" y="1432" type="line"/>
      <point x="102" y="1432" type="line"/>
      <point x="102" y="466" type="line" smooth="yes"/>
      <point x="102" y="169"/>
      <point x="301" y="-29"/>
      <point x="600" y="-29" type="curve" smooth="yes"/>
      <point x="659" y="-29"/>
      <point x="715" y="-21"/>
      <point x="766" y="-6" type="curve"/>
      <point x="788" y="112" type="line"/>
      <point x="533" y="19"/>
      <point x="412" y="-105"/>
      <point x="412" y="-271" type="curve" smooth="yes"/>
      <point x="412" y="-429"/>
      <point x="536" y="-547"/>
    </contour>
  </outline>
</glyph>
<glyph name="Dhook" format="2">
  <advance width="1200"/>
  <unicode hex="018A"/>
  <outline>
    <contour>
      <point x="431" y="0" type="line"/>
      <point x="673" y="0" type="line" smooth="yes"/>
      <point x="995" y="0"/>
      <point x="1182" y="257"/>
      <point x="1182" y="658" type="curve" smooth="yes"/>
      <point x="1182" y="774" type="line" smooth="yes"/>
      <point x="1182" y="1175"/>
      <point x="995" y="1432"/>
      <point x="673" y="1432" type="curve" smooth="yes"/>
      <point x="431" y="1432" type="line"/>
    </contour>
    <contour>
      <point x="57" y="824" type="curve"/>
      <point x="296" y="900" type="line"/>
      <point x="281" y="944"/>
      <point x="272" y="988"/>
      <point x="272" y="1035" type="curve" smooth="yes"/>
      <point x="272" y="1149"/>
      <point x="328" y="1212"/>
      <point x="425" y="1212" type="curve" smooth="yes"/>
      <point x="559" y="1212" type="line"/>
      <point x="559" y="1432" type="line"/>
      <point x="421" y="1432" type="line" smooth="yes"/>
      <point x="176" y="1432"/>
      <point x="7" y="1279"/>
      <point x="7" y="1050" type="curve" smooth="yes"/>
      <point x="7" y="980"/>
      <point x="24" y="900"/>
    </contour>
    <contour>
      <point x="677" y="258" type="line"/>
      <point x="677" y="1174" type="line"/>
      <point x="718" y="1174" type="line" smooth="yes"/>
      <point x="853" y="1174"/>
      <point x="924" y="1053"/>
      <point x="924" y="779" type="curve" smooth="yes"/>
      <point x="924" y="653" type="line" smooth="yes"/>
      <point x="924" y="380"/>
      <point x="854" y="258"/>
      <point x="718" y="258" type="curve" smooth="yes"/>
    </contour>
  </outline>
</glyph>
<glyph name="Khook" format="2">
  <advance width="1200"/>
  <unicode hex="0198"/>
  <outline>
    <contour>
      <point x="801" y="0" type="line"/>
      <point x="1153" y="0" type="line"/>
      <point x="671" y="811" type="line"/>
      <point x="671" y="755" type="line"/>
      <point x="835" y="1023" type="line" smooth="yes"/>
      <point x="901" y="1131"/>
      <point x="949" y="1174"/>
      <point x="1015" y="1174" type="curve" smooth="yes"/>
      <point x="1049" y="1174"/>
      <point x="1070" y="1166"/>
      <point x="1096" y="1147" type="curve"/>
      <point x="1215" y="1405" type="line"/>
      <point x="1150" y="1446"/>
      <point x="1089" y="1466"/>
      <point x="999" y="1466" type="curve" smooth="yes"/>
      <point x="810" y="1466"/>
      <point x="698" y="1368"/>
      <point x="586" y="1154" type="curve" smooth="yes"/>
      <point x="373" y="747" type="line"/>
      <point x="373" y="739" type="line"/>
    </contour>
    <contour>
      <point x="73" y="0" type="line"/>
      <point x="381" y="0" type="line"/>
      <point x="381" y="1432" type="line"/>
      <point x="73" y="1432" type="line"/>
    </contour>
  </outline>
</glyph>
<glyph name="khook" format="2">
  <advance width="1200"/>
  <unicode hex="0199"/>
  <outline>
    <contour>
      <point x="112" y="0" type="line"/>
      <point x="414" y="0" type="line"/>
      <point x="414" y="1018" type="line" smooth="yes"/>
      <point x="414" y="1184"/>
      <point x="476" y="1267"/>
      <point x="604" y="1267" type="curve" smooth="yes"/>
      <point x="655" y="1267"/>
      <point x="692" y="1259"/>
      <point x="736" y="1239" type="curve"/>
      <point x="833" y="1491" type="line"/>
      <point x="752" y="1526"/>
      <point x="671" y="1543"/>
      <point x="583" y="1543" type="curve" smooth="yes"/>
      <point x="296" y="1543"/>
      <point x="112" y="1353"/>
      <point x="112" y="1033" type="curve" smooth="yes"/>
    </contour>
    <contour>
      <point x="798" y="0" type="line"/>
      <point x="1142" y="0" type="line"/>
      <point x="686" y="631" type="line"/>
      <point x="686" y="508" type="line"/>
      <point x="1128" y="1052" type="line"/>
      <point x="782" y="1052" type="line"/>
      <point x="401" y="571" type="line"/>
      <point x="401" y="563" type="line"/>
    </contour>
  </outline>
</glyph>
<glyph name="Ohorn" format="2">
  <advance width="1200"/>
  <unicode hex="01A0"/>
  <anchor x="596" y="-34" name="bottom"/>
  <outline>
    <contour>
      <point x="596" y="-34" type="curve" smooth="yes"/>
      <point x="933" y="-34"/>
      <point x="1136" y="240"/>
      <point x="1136" y="694" type="curve" smooth="yes"/>
      <point x="1136" y="738" type="line" smooth="yes"/>
      <point x="1136" y="1092"/>
      <point x="1018" y="1302"/>
      <point x="776" y="1409" type="curve"/>
      <point x="750" y="1316" type="line"/>
      <point x="837" y="1316" type="line" smooth="yes"/>
      <point x="1059" y="1316"/>
      <point x="1199" y="1422"/>
      <point x="1199" y="1596" type="curve" smooth="yes"/>
      <point x="1199" y="1687"/>
      <point x="1168" y="1772"/>
      <point x="1102" y="1857" type="curve"/>
      <point x="867" y="1708" type="line"/>
      <point x="911" y="1652"/>
      <point x="927" y="1612"/>
      <point x="927" y="1564" type="curve" smooth="yes"/>
      <point x="927" y="1492"/>
      <point x="879" y="1452"/>
      <point x="793" y="1452" type="curve" smooth="yes"/>
      <point x="732" y="1452"/>
      <point x="682" y="1466"/>
      <point x="608" y="1466" type="curve" smooth="yes"/>
      <point x="261" y="1466"/>
      <point x="57" y="1195"/>
      <point x="57" y="738" type="curve" smooth="yes"/>
      <point x="57" y="694" type="line" smooth="yes"/>
      <point x="57" y="240"/>
      <point x="260" y="-34"/>
    </contour>
    <contour>
      <point x="596" y="256" type="curve" smooth="yes"/>
      <point x="446" y="256"/>
      <point x="366" y="406"/>
      <point x="366" y="689" type="curve" smooth="yes"/>
      <point x="366" y="743" type="line" smooth="yes"/>
      <point x="366" y="1030"/>
      <point x="450" y="1182"/>
      <point x="608" y="1182" type="curve" smooth="yes"/>
      <point x="757" y="1182"/>
      <point x="826" y="1037"/>
      <point x="826" y="759" type="curve" smooth="yes"/>
      <point x="826" y="689" type="line" smooth="yes"/>
      <point x="826" y="406"/>
      <point x="747" y="256"/>
    </contour>
  </outline>
</glyph>
<glyph name="uhorn" format="2">
  <advance width="1200"/>
  <unicode hex="01B0"/>
  <anchor x="564" y="-34" name="bottom"/>
  <outline>
    <contour>
      <point x="419" y="-34" type="curve" smooth="yes"/>
      <point x="538" y="-34"/>
      <point x="637" y="32"/>
      <point x="701" y="146" type="curve"/>
      <point x="711" y="146" type="line"/>
      <point x="711" y="0" type="line"/>
      <point x="999" y="0" type="line"/>
      <point x="999" y="1050" type="line"/>
      <point x="782" y="929" type="line"/>
      <point x="844" y="929" type="line" smooth="yes"/>
      <point x="1061" y="929"/>
      <point x="1197" y="1034"/>
      <point x="1197" y="1201" type="curve" smooth="yes"/>
      <point x="1197" y="1286"/>
      <point x="1167" y="1360"/>
      <point x="1107" y="1436" type="curve"/>
      <point x="873" y="1285" type="line"/>
      <point x="910" y="1237"/>
      <point x="925" y="1202"/>
      <point x="925" y="1160" type="curve" smooth="yes"/>
      <point x="925" y="1091"/>
      <point x="874" y="1052"/>
      <point x="782" y="1052" type="curve" smooth="yes"/>
      <point x="709" y="1052" type="line"/>
      <point x="709" y="408" type="line" smooth="yes"/>
      <point x="709" y="285"/>
      <point x="649" y="210"/>
      <point x="553" y="210" type="curve" smooth="yes"/>
      <point x="468" y="210"/>
      <point x="418" y="265"/>
      <point x="418" y="359" type="curve" smooth="yes"/>
      <point x="418" y="1052" type="line"/>
      <point x="129" y="1052" type="line"/>
      <point x="129" y="295" type="line" smooth="yes"/>
      <point x="129" y="90"/>
      <point x="240" y="-34"/>
    </contour>
  </outline>
</glyph>
<glyph name="Yhook" format="2">
  <advance width="1200"/>
  <unicode hex="01B3"/>
  <outline>
    <contour>
      <point x="418" y="419" type="line"/>
      <point x="664" y="419" type="line"/>
      <point x="874" y="964" type="line" smooth="yes"/>
      <point x="937" y="1127"/>
      <point x="982" y="1177"/>
      <point x="1065" y="1177" type="curve" smooth="yes"/>
      <point x="1094" y="1177"/>
      <point x="1115" y="1173"/>
      <point x="1141" y="1160" type="curve"/>
      <point x="1231" y="1415" type="line"/>
      <point x="1164" y="1451"/>
      <point x="1108" y="1466"/>
      <point x="1022" y="1466" type="curve" smooth="yes"/>
      <point x="825" y="1466"/>
      <point x="704" y="1347"/>
      <point x="631" y="1102" type="curve" smooth="yes"/>
      <point x="606" y="1018" type="line"/>
      <point x="550" y="800" type="line"/>
      <point x="542" y="800" type="line"/>
      <point x="464" y="1074" type="line"/>
      <point x="343" y="1432" type="line"/>
      <point x="10" y="1432" type="line"/>
    </contour>
    <contour>
      <point x="387" y="0" type="line"/>
      <point x="695" y="0" type="line"/>
      <point x="695" y="642" type="line"/>
      <point x="387" y="642" type="line"/>
    </contour>
  </outline>
</glyph>
<glyph name="dzcaron" format="2">
  <advance width="1200"/>
  <unicode hex="01C6"/>
  <outline>
    <contour>
      <point x="241" y="-34" type="curve" smooth="yes"/>
      <point x="319" y="-34"/>
      <point x="375" y="29"/>
      <point x="413" y="138" type="curve"/>
      <point x="422" y="138" type="line"/>
      <point x="422" y="0" type="line"/>
      <point x="640" y="0" type="line"/>
      <point x="640" y="1460" type="line"/>
      <point x="406" y="1460" type="line"/>
      <point x="406" y="922" type="line"/>
      <point x="397" y="922" type="line"/>
      <point x="356" y="1031"/>
      <point x="302" y="1086"/>
      <point x="226" y="1086" type="curve" smooth="yes"/>
      <point x="82" y="1086"/>
      <point x="1" y="884"/>
      <point x="1" y="571" type="curve" smooth="yes"/>
      <point x="1" y="482" type="line" smooth="yes"/>
      <point x="1" y="168"/>
      <point x="91" y="-34"/>
    </contour>
    <contour>
      <point x="335" y="200" type="curve" smooth="yes"/>
      <point x="275" y="200"/>
      <point x="245" y="282"/>
      <point x="245" y="445" type="curve" smooth="yes"/>
      <point x="245" y="607" type="line" smooth="yes"/>
      <point x="245" y="769"/>
      <point x="274" y="852"/>
      <point x="334" y="852" type="curve" smooth="yes"/>
      <point x="394" y="852"/>
      <point x="422" y="763"/>
      <point x="422" y="602" type="curve" smooth="yes"/>
      <point x="422" y="450" type="line" smooth="yes"/>
      <point x="422" y="288"/>
      <point x="394" y="200"/>
    </contour>
    <contour>
      <point x="699" y="0" type="line"/>
      <point x="1213" y="0" type="line"/>
      <point x="1213" y="224" type="line"/>
      <point x="941" y="224" type="line"/>
      <point x="1203" y="864" type="line"/>
      <point x="1203" y="1052" type="line"/>
      <point x="709" y="1052" type="line"/>
      <point x="709" y="828" type="line"/>
      <point x="961" y="828" type="line"/>
      <point x="699" y="188" type="line"/>
    </contour>
    <contour>
      <point x="847" y="1258" type="line"/>
      <point x="1099" y="1258" type="line"/>
      <point x="1310" y="1623" type="line"/>
      <point x="1310" y="1636" type="line"/>
      <point x="1080" y="1636" type="line"/>
      <point x="950" y="1357" type="line"/>
      <point x="997" y="1357" type="line"/>
      <point x="866" y="1636" type="line"/>
      <point x="636" y="1636" type="line"/>
      <point x="636" y="1623" type="line"/>
    </contour>
  </outline>
</glyph>
<glyph name="Lj" format="2">
  <advance width="1200"/>
  <unicode hex="01C8"/>
  <outline>
    <contour>
      <point x="751" y="-449" type="curve" smooth="yes"/>
      <point x="1000" y="-449"/>
      <point x="1160" y="-282"/>
      <point x="1160" y="-18" type="curve" smooth="yes"/>
      <point x="1160" y="1052" type="line"/>
      <point x="880" y="1052" type="line"/>
      <point x="880" y="-12" type="line" smooth="yes"/>
      <point x="880" y="-129"/>
      <point x="827" y="-191"/>
      <point x="727" y="-191" type="curve" smooth="yes"/>
      <point x="664" y="-191"/>
      <point x="610" y="-171"/>
      <point x="545" y="-123" type="curve"/>
      <point x="408" y="-332" type="line"/>
      <point x="506" y="-410"/>
      <point x="619" y="-449"/>
    </contour>
    <contour>
      <point x="54" y="0" type="line"/>
      <point x="697" y="0" type="line"/>
      <point x="697" y="276" type="line"/>
      <point x="338" y="276" type="line"/>
      <point x="338" y="1432" type="line"/>
      <point x="54" y="1432" type="line"/>
    </contour>
    <contour>
      <point x="563" y="828" type="line"/>
      <point x="1075" y="828" type="line"/>
      <point x="1075" y="1052" type="line"/>
      <point x="563" y="1052" type="line"/>
    </contour>
    <contour>
      <point x="981" y="1246" type="curve" smooth="yes"/>
      <point x="1092" y="1246"/>
      <point x="1177" y="1330"/>
      <point x="1177" y="1440" type="curve" smooth="yes"/>
      <point x="1177" y="1552"/>
      <point x="1095" y="1633"/>
      <point x="981" y="1633" type="curve" smooth="yes"/>
      <point x="868" y="1633"/>
      <point x="783" y="1550"/>
      <point x="783" y="1440" type="curve" smooth="yes"/>
      <point x="783" y="1332"/>
      <point x="870" y="1246"/>
    </contour>
  </outline>
</glyph>
<glyph name="NJ" format="2">
  <advance width="1200"/>
  <unicode hex="01CA"/>
  <outline>
    <contour>
      <point x="10" y="0" type="line"/>
      <point x="220" y="0" type="line"/>
      <point x="220" y="462" type="line"/>
      <point x="182" y="1138" type="line"/>
      <point x="200" y="1138" type="line"/>
      <point x="421" y="0" type="line"/>
      <point x="702" y="0" type="line"/>
      <point x="702" y="1432" type="line"/>
      <point x="492" y="1432" type="line"/>
      <point x="492" y="1062" type="line"/>
      <point x="540" y="372" type="line"/>
      <point x="521" y="372" type="line"/>
      <point x="316" y="1432" type="line"/>
      <point x="10" y="1432" type="line"/>
    </contour>
    <contour>
      <point x="898" y="-34" type="curve" smooth="yes"/>
      <point x="1082" y="-34"/>
      <point x="1191" y="92"/>
      <point x="1191" y="302" type="curve" smooth="yes"/>
      <point x="1191" y="1432" type="line"/>
      <point x="953" y="1432" type="line"/>
      <point x="953" y="312" type="line" smooth="yes"/>
      <point x="953" y="234"/>
      <point x="923" y="195"/>
      <point x="861" y="195" type="curve" smooth="yes"/>
      <point x="835" y="195"/>
      <point x="811" y="202"/>
      <point x="789" y="215" type="curve"/>
      <point x="734" y="3" type="line"/>
      <point x="783" y="-22"/>
      <point x="836" y="-34"/>
    </contour>
  </outline>
</glyph>
<glyph name="nj" format="2">
  <advance width="1200"/>
  <unicode hex="01CC"/>
  <outline>
    <contour>
      <point x="766" y="-449" type="curve" smooth="yes"/>
      <point x="1015" y="-449"/>
      <point x="1167" y="-291"/>
      <point x="1167" y="-32" type="curve" smooth="yes"/>
      <point x="1167" y="1052" type="line"/>
      <point x="905" y="1052" type="line"/>
      <point x="905" y="-31" type="line" smooth="yes"/>
      <point x="905" y="-151"/>
      <point x="847" y="-213"/>
      <point x="745" y="-213" type="curve" smooth="yes"/>
      <point x="684" y="-213"/>
      <point x="630" y="-192"/>
      <point x="568" y="-143" type="curve"/>
      <point x="435" y="-332" type="line"/>
      <point x="533" y="-411"/>
      <point x="646" y="-449"/>
    </contour>
    <contour>
      <point x="35" y="0" type="line"/>
      <point x="297" y="0" type="line"/>
      <point x="297" y="665" type="line" smooth="yes"/>
      <point x="297" y="783"/>
      <point x="352" y="856"/>
      <point x="428" y="856" type="curve" smooth="yes"/>
      <point x="492" y="856"/>
      <point x="518" y="813"/>
      <point x="518" y="723" type="curve" smooth="yes"/>
      <point x="518" y="0" type="line"/>
      <point x="780" y="0" type="line"/>
      <point x="780" y="772" type="line" smooth="yes"/>
      <point x="780" y="974"/>
      <point x="698" y="1086"/>
      <point x="550" y="1086" type="curve" smooth="yes"/>
      <point x="433" y="1086"/>
      <point x="347" y="1021"/>
      <point x="282" y="892" type="curve"/>
      <point x="273" y="892" type="line"/>
      <point x="273" y="1052" type="line"/>
      <point x="35" y="1052" type="line"/>
    </contour>
    <contour>
      <point x="1036" y="1247" type="curve" smooth="yes"/>
      <point x="1141" y="1247"/>
      <point x="1217" y="1331"/>
      <point x="1217" y="1440" type="curve" smooth="yes"/>
      <point x="1217" y="1549"/>
      <point x="1142" y="1633"/>
      <point x="1036" y="1633" type="curve" smooth="yes"/>
      <point x="930" y="1633"/>
      <point x="855" y="1549"/>
      <point x="855" y="1440" type="curve" smooth="yes"/>
      <point x="855" y="1331"/>
      <point x="930" y="1247"/>
    </contour>
  </outline>
</glyph>
<glyph name="bhook" format="2">
  <advance width="1200"/>
  <unicode hex="0253"/>
  <outline>
    <contour>
      <point x="722" y="-34" type="curve" smooth="yes"/>
      <point x="953" y="-34"/>
      <point x="1109" y="181"/>
      <point x="1109" y="504" type="curve" smooth="yes"/>
      <point x="1109" y="521" type="line" smooth="yes"/>
      <point x="1109" y="844"/>
      <point x="962" y="1058"/>
      <point x="735" y="1058" type="curve" smooth="yes"/>
      <point x="605" y="1058"/>
      <point x="498" y="995"/>
      <point x="429" y="878" type="curve"/>
      <point x="420" y="878" type="line"/>
      <point x="420" y="1024" type="line" smooth="yes"/>
      <point x="420" y="1188"/>
      <point x="491" y="1267"/>
      <point x="623" y="1267" type="curve" smooth="yes"/>
      <point x="682" y="1267"/>
      <point x="722" y="1258"/>
      <point x="770" y="1234" type="curve"/>
      <point x="867" y="1486" type="line"/>
      <point x="785" y="1526"/>
      <point x="706" y="1543"/>
      <point x="604" y="1543" type="curve" smooth="yes"/>
      <point x="303" y="1543"/>
      <point x="119" y="1352"/>
      <point x="119" y="1038" type="curve" smooth="yes"/>
      <point x="119" y="0" type="line"/>
      <point x="411" y="0" type="line"/>
      <point x="411" y="156" type="line"/>
      <point x="420" y="156" type="line"/>
      <point x="482" y="36"/>
      <point x="593" y="-34"/>
    </contour>
    <contour>
      <point x="614" y="216" type="curve" smooth="yes"/>
      <point x="491" y="216"/>
      <point x="412" y="329"/>
      <point x="412" y="505" type="curve" smooth="yes"/>
      <point x="412" y="520" type="line" smooth="yes"/>
      <point x="412" y="695"/>
      <point x="491" y="808"/>
      <point x="613" y="808" type="curve" smooth="yes"/>
      <point x="737" y="808"/>
      <point x="807" y="706"/>
      <point x="807" y="525" type="curve" smooth="yes"/>
      <point x="807" y="500" type="line" smooth="yes"/>
      <point x="807" y="319"/>
      <point x="737" y="216"/>
    </contour>
  </outline>
</glyph>
<glyph name="schwa" format="2">
  <advance width="1200"/>
  <unicode hex="0259"/>
  <outline>
    <contour>
      <point x="598" y="-34" type="curve" smooth="yes"/>
      <point x="908" y="-34"/>
      <point x="1117" y="191"/>
      <point x="1117" y="525" type="curve" smooth="yes"/>
      <point x="1117" y="547" type="line" smooth="yes"/>
      <point x="1117" y="876"/>
      <point x="930" y="1086"/>
      <point x="607" y="1086" type="curve" smooth="yes"/>
      <point x="427" y="1086"/>
      <point x="268" y="1027"/>
      <point x="127" y="916" type="curve"/>
      <point x="264" y="719" type="line"/>
      <point x="376" y="803"/>
      <point x="475" y="842"/>
      <point x="583" y="842" type="curve" smooth="yes"/>
      <point x="752" y="842"/>
      <point x="831" y="742"/>
      <point x="831" y="566" type="curve" smooth="yes"/>
      <point x="831" y="506" type="line" smooth="yes"/>
      <point x="831" y="313"/>
      <point x="747" y="206"/>
      <point x="598" y="206" type="curve" smooth="yes"/>
      <point x="465" y="206"/>
      <point x="379" y="294"/>
      <point x="379" y="420" type="curve"/>
      <point x="379" y="414" type="line"/>
      <point x="959" y="414" type="line"/>
      <point x="959" y="589" type="line"/>
      <point x="112" y="589" type="line"/>
      <point x="106" y="556"/>
      <point x="103" y="517"/>
      <point x="103" y="472" type="curve" smooth="yes"/>
      <point x="103" y="171"/>
      <point x="302" y="-34"/>
    </contour>
  </outline>
</glyph>
<glyph name="acutecomb" format="2">
  <unicode hex="0301"/>
  <anchor x="0" y="1052" name="_top"/>
  <outline>
    <contour>
      <point x="-133" y="1258" type="line"/>
      <point x="133" y="1258" type="line"/>
      <point x="423" y="1623" type="line"/>
      <point x="423" y="1636" type="line"/>
      <point x="75" y="1636" type="line"/>
      <point x="-133" y="1272" type="line"/>
    </contour>
  </outline>
</glyph>
<glyph name="tildecomb" format="2">
  <unicode hex="0303"/>
  <anchor x="0" y="1052" name="_top"/>
  <outline>
    <contour>
      <point x="179" y="1259" type="curve" smooth="yes"/>
      <point x="325" y="1259"/>
      <point x="396" y="1360"/>
      <point x="396" y="1546" type="curve" smooth="yes"/>
      <point x="396" y="1636" type="line"/>
      <point x="179" y="1636" type="line"/>
      <point x="179" y="1552" type="line" smooth="yes"/>
      <point x="179" y="1504"/>
      <point x="161" y="1479"/>
      <point x="126" y="1479" type="curve" smooth="yes"/>
      <point x="95" y="1479"/>
      <point x="68" y="1498"/>
      <point x="18" y="1548" type="curve" smooth="yes"/>
      <point x="-49" y="1615"/>
      <point x="-102" y="1639"/>
      <point x="-166" y="1639" type="curve" smooth="yes"/>
      <point x="-314" y="1639"/>
      <point x="-395" y="1537"/>
      <point x="-395" y="1353" type="curve" smooth="yes"/>
      <point x="-395" y="1262" type="line"/>
      <point x="-179" y="1262" type="line"/>
      <point x="-179" y="1345" type="line" smooth="yes"/>
      <point x="-179" y="1393"/>
      <point x="-160" y="1419"/>
      <point x="-123" y="1419" type="curve" smooth="yes"/>
      <point x="-94" y="1419"/>
      <point x="-68" y="1399"/>
      <point x="-17" y="1351" type="curve" smooth="yes"/>
      <point x="52" y="1286"/>
      <point x="114" y="1259"/>
    </contour>
  </outline>
</glyph>
<glyph name="brevecomb" format="2">
  <unicode hex="0306"/>
  <anchor x="0" y="1052" name="_top"/>
  <outline>
    <contour>
      <point x="0" y="1247" type="curve" smooth="yes"/>
      <point x="230" y="1247"/>
      <point x="385" y="1399"/>
      <point x="385" y="1624" type="curve" smooth="yes"/>
      <point x="385" y="1636" type="line"/>
      <point x="161" y="1636" type="line"/>
      <point x="161" y="1618" type="line" smooth="yes"/>
      <point x="161" y="1514"/>
      <point x="100" y="1451"/>
      <point x="0" y="1451" type="curve" smooth="yes"/>
      <point x="-100" y="1451"/>
      <point x="-161" y="1514"/>
      <point x="-161" y="1618" type="curve" smooth="yes"/>
      <point x="-161" y="1636" type="line"/>
      <point x="-385" y="1636" type="line"/>
      <point x="-385" y="1624" type="line" smooth="yes"/>
      <point x="-385" y="1399"/>
      <point x="-230" y="1247"/>
    </contour>
  </outline>
</glyph>
<glyph name="dieresiscomb" format="2">
  <unicode hex="0308"/>
  <anchor x="0" y="1052" name="_top"/>
  <outline>
    <contour>
      <point x="-272" y="1246" type="curve" smooth="yes"/>
      <point x="-163" y="1246"/>
      <point x="-80" y="1328"/>
      <point x="-80" y="1435" type="curve" smooth="yes"/>
      <point x="-80" y="1541"/>
      <point x="-164" y="1624"/>
      <point x="-272" y="1624" type="curve" smooth="yes"/>
      <point x="-379" y="1624"/>
      <point x="-464" y="1540"/>
      <point x="-464" y="1435" type="curve" smooth="yes"/>
      <point x="-464" y="1329"/>
      <point x="-379" y="1246"/>
    </contour>
    <contour>
      <point x="272" y="1246" type="curve" smooth="yes"/>
      <point x="381" y="1246"/>
      <point x="464" y="1328"/>
      <point x="464" y="1435" type="curve" smooth="yes"/>
      <point x="464" y="1541"/>
      <point x="380" y="1624"/>
      <point x="272" y="1624" type="curve" smooth="yes"/>
      <point x="165" y="1624"/>
      <point x="80" y="1540"/>
      <point x="80" y="1435" type="curve" smooth="yes"/>
      <point x="80" y="1329"/>
      <point x="165" y="1246"/>
    </contour>
  </outline>
</glyph>
<glyph name="ringcomb" format="2">
  <unicode hex="030A"/>
  <anchor x="0" y="1052" name="_top"/>
  <outline>
    <contour>
      <point x="0" y="1151" type="curve" smooth="yes"/>
      <point x="173" y="1151"/>
      <point x="312" y="1284"/>
      <point x="312" y="1452" type="curve" smooth="yes"/>
      <point x="312" y="1621"/>
      <point x="173" y="1754"/>
      <point x="0" y="1754" type="curve" smooth="yes"/>
      <point x="-174" y="1754"/>
      <point x="-312" y="1621"/>
      <point x="-312" y="1452" type="curve" smooth="yes"/>
      <point x="-312" y="1284"/>
      <point x="-174" y="1151"/>
    </contour>
    <contour>
      <point x="0" y="1331" type="curve" smooth="yes"/>
      <point x="-70" y="1331"/>
      <point x="-122" y="1382"/>
      <point x="-122" y="1452" type="curve" smooth="yes"/>
      <point x="-122" y="1522"/>
      <point x="-70" y="1574"/>
      <point x="0" y="1574" type="curve" smooth="yes"/>
      <point x="70" y="1574"/>
      <point x="122" y="1522"/>
      <point x="122" y="1452" type="curve" smooth="yes"/>
      <point x="122" y="1382"/>
      <point x="70" y="1331"/>
    </contour>
  </outline>
</glyph>
<glyph name="hungarumlautcomb" format="2">
  <unicode hex="030B"/>
  <anchor x="0" y="1052" name="_top"/>
  <outline>
    <contour>
      <point x="87" y="1258" type="line"/>
      <point x="329" y="1258" type="line"/>
      <point x="571" y="1623" type="line"/>
      <point x="571" y="1636" type="line"/>
      <point x="247" y="1636" type="line"/>
      <point x="87" y="1272" type="line"/>
    </contour>
    <contour>
      <point x="-361" y="1258" type="line"/>
      <point x="-119" y="1258" type="line"/>
      <point x="123" y="1623" type="line"/>
      <point x="123" y="1636" type="line"/>
      <point x="-201" y="1636" type="line"/>
      <point x="-361" y="1272" type="line"/>
    </contour>
  </outline>
</glyph>
<glyph name="caroncomb" format="2">
  <unicode hex="030C"/>
  <anchor x="0" y="1052" name="_top"/>
  <outline>
    <contour>
      <point x="-147" y="1258" type="line"/>
      <point x="147" y="1258" type="line"/>
      <point x="437" y="1622" type="line"/>
      <point x="437" y="1636" type="line"/>
      <point x="141" y="1636" type="line"/>
      <point x="-28" y="1341" type="line"/>
      <point x="29" y="1341" type="line"/>
      <point x="-141" y="1636" type="line"/>
      <point x="-437" y="1636" type="line"/>
      <point x="-437" y="1622" type="line"/>
    </contour>
  </outline>
</glyph>
<glyph name="horncomb" format="2">
  <unicode hex="031B"/>
  <anchor x="0" y="1432" name="_horn"/>
  <outline>
    <contour>
      <point x="-60" y="1283" type="line"/>
      <point x="15" y="1283" type="line" smooth="yes"/>
      <point x="243" y="1283"/>
      <point x="397" y="1407"/>
      <point x="397" y="1590" type="curve" smooth="yes"/>
      <point x="397" y="1675"/>
      <point x="371" y="1750"/>
      <point x="315" y="1828" type="curve"/>
      <point x="56" y="1678" type="line"/>
      <point x="94" y="1623"/>
      <point x="107" y="1587"/>
      <point x="107" y="1541" type="curve" smooth="yes"/>
      <point x="107" y="1471"/>
      <point x="63" y="1432"/>
      <point x="-15" y="1432" type="curve" smooth="yes"/>
      <point x="-60" y="1432" type="line"/>
    </contour>
  </outline>
</glyph>
<glyph name="cedillacomb" format="2">
  <unicode hex="0327"/>
  <anchor x="0" y="0" name="_bottom"/>
  <outline>
    <contour>
      <point x="4" y="-658" type="curve" smooth="yes"/>
      <point x="188" y="-658"/>
      <point x="314" y="-544"/>
      <point x="314" y="-379" type="curve" smooth="yes"/>
      <point x="314" y="-218"/>
      <point x="209" y="-112"/>
      <point x="49" y="-112" type="curve" smooth="yes"/>
      <point x="-26" y="-112"/>
      <point x="-98" y="-143"/>
      <point x="-151" y="-198" type="curve"/>
      <point x="-71" y="-241" type="line"/>
      <point x="94" y="19" type="line"/>
      <point x="-62" y="19" type="line"/>
      <point x="-199" y="-202" type="line"/>
      <point x="-83" y="-302" type="line"/>
      <point x="-55" y="-282"/>
      <point x="-22" y="-272"/>
      <point x="13" y="-272" type="curve" smooth="yes"/>
      <point x="76" y="-272"/>
      <point x="116" y="-310"/>
      <point x="116" y="-371" type="curve" smooth="yes"/>
      <point x="116" y="-431"/>
      <point x="71" y="-470"/>
      <point x="3" y="-470" type="curve" smooth="yes"/>
      <point x="-58" y="-470"/>
      <point x="-111" y="-434"/>
      <point x="-151" y="-365" type="curve"/>
      <point x="-319" y="-467" type="line"/>
      <point x="-253" y="-583"/>
      <point x="-128" y="-658"/>
    </contour>
  </outline>
</glyph>
<glyph name="ogonekcomb" format="2">
  <unicode hex="0328"/>
  <anchor x="79" y="-11" name="_ogonek"/>
  <outline>
    <contour>
      <point x="-70" y="-559" type="curve" smooth="yes"/>
      <point x="5" y="-559"/>
      <point x="68" y="-542"/>
      <point x="130" y="-506" type="curve"/>
      <point x="72" y="-319" type="line"/>
      <point x="43" y="-333"/>
      <point x="18" y="-339"/>
      <point x="-13" y="-339" type="curve" smooth="yes"/>
      <point x="-80" y="-339"/>
      <point x="-127" y="-297"/>
      <point x="-127" y="-235" type="curve" smooth="yes"/>
      <point x="-127" y="-150"/>
      <point x="-67" y="-86"/>
      <point x="79" y="-11" type="curve"/>
      <point x="16" y="101" type="line"/>
      <point x="-243" y="6"/>
      <point x="-360" y="-118"/>
      <point x="-360" y="-282" type="curve" smooth="yes"/>
      <point x="-360" y="-440"/>
      <point x="-236" y="-559"/>
    </contour>
  </outline>
</glyph>
<glyph name="verticallinebelowcomb" format="2">
  <unicode hex="0329"/>
  <anchor x="0" y="0" name="_bottom"/>
  <outline>
    <contour>
      <point x="-134" y="-667" type="line"/>
      <point x="134" y="-667" type="line"/>
      <point x="134" y="-171" type="line"/>
      <point x="-134" y="-171" type="line"/>
    </contour>
  </outline>
</glyph>
<glyph name="emdash" format="2">
  <advance width="1200"/>
  <unicode hex="2014"/>
  <outline>
    <contour>
      <point x="53" y="493" type="line"/>
      <point x="1147" y="493" type="line"/>
      <point x="1147" y="799" type="line"/>
      <point x="53" y="799" type="line"/>
    </contour>
  </outline>
</glyph>
<glyph name="bullet" format="2">
  <advance width="1200"/>
  <unicode hex="2022"/>
  <outline>
    <contour>
      <point x="560" y="381" type="curve" smooth="yes"/>
      <point x="723" y="381"/>
      <point x="846" y="505"/>
      <point x="846" y="667" type="curve" smooth="yes"/>
      <point x="846" y="830"/>
      <point x="723" y="953"/>
      <point x="560" y="953" type="curve" smooth="yes"/>
      <point x="398" y="953"/>
      <point x="274" y="830"/>
      <point x="274" y="667" type="curve" smooth="yes"/>
      <point x="274" y="505"/>
      <point x="398" y="381"/>
    </contour>
  </outline>
</glyph>
<glyph name="foursuperior" format="2">
  <advance width="1200"/>
  <unicode hex="2074"/>
  <outline>
    <contour>
      <point x="591" y="687" type="line"/>
      <point x="864" y="687" type="line"/>
      <point x="864" y="1713" type="line"/>
      <point x="601" y="1713" type="line"/>
      <point x="135" y="1091" type="line"/>
      <point x="135" y="878" type="line"/>
      <point x="1019" y="878" type="line"/>
      <point x="1019" y="1120" type="line"/>
      <point x="773" y="1120" type="line"/>
      <point x="709" y="1096" type="line"/>
      <point x="402" y="1096" type="line"/>
      <point x="402" y="1110" type="line"/>
      <point x="610" y="1389" type="line"/>
      <point x="646" y="1389" type="line"/>
      <point x="623" y="1415" type="line"/>
      <point x="623" y="1047" type="line"/>
      <point x="591" y="1007" type="line"/>
    </contour>
  </outline>
</glyph>
<glyph name="dong" format="2">
  <advance width="1200"/>
  <unicode hex="20AB"/>
  <outline>
    <contour>
      <point x="456" y="220" type="curve" smooth="yes"/>
      <point x="596" y="220"/>
      <point x="694" y="286"/>
      <point x="756" y="399" type="curve"/>
      <point x="765" y="399" type="line"/>
      <point x="765" y="220" type="line"/>
      <point x="1024" y="220" type="line"/>
      <point x="1024" y="1545" type="line"/>
      <point x="756" y="1545" type="line"/>
      <point x="756" y="922" type="line"/>
      <point x="746" y="922" type="line"/>
      <point x="681" y="1024"/>
      <point x="587" y="1077"/>
      <point x="448" y="1077" type="curve" smooth="yes"/>
      <point x="221" y="1077"/>
      <point x="54" y="895"/>
      <point x="54" y="651" type="curve" smooth="yes"/>
      <point x="54" y="646" type="line" smooth="yes"/>
      <point x="54" y="401"/>
      <point x="229" y="220"/>
    </contour>
    <contour>
      <point x="74" y="-176" type="line"/>
      <point x="1104" y="-176" type="line"/>
      <point x="1104" y="86" type="line"/>
      <point x="74" y="86" type="line"/>
    </contour>
    <contour>
      <point x="543" y="439" type="curve" smooth="yes"/>
      <point x="419" y="439"/>
      <point x="339" y="521"/>
      <point x="339" y="647" type="curve" smooth="yes"/>
      <point x="339" y="650" type="line" smooth="yes"/>
      <point x="339" y="775"/>
      <point x="418" y="859"/>
      <point x="543" y="859" type="curve" smooth="yes"/>
      <point x="663" y="859"/>
      <point x="748" y="771"/>
      <point x="748" y="650" type="curve" smooth="yes"/>
      <point x="748" y="647" type="line" smooth="yes"/>
      <point x="748" y="525"/>
      <point x="663" y="439"/>
    </contour>
    <contour>
      <point x="361" y="1200" type="line"/>
      <point x="1188" y="1200" type="line"/>
      <point x="1188" y="1389" type="line"/>
      <point x="361" y="1389" type="line"/>
    </contour>
  </outline>
</glyph>
<glyph name="rightArrow" format="2">
  <advance width="1200"/>
  <unicode hex="2192"/>
  <outline>
    <contour>
      <point x="610" y="37" type="line"/>
      <point x="1164" y="641" type="line"/>
      <point x="610" y="1246" type="line"/>
      <point x="429" y="1075" type="line"/>
      <point x="841" y="661" type="line"/>
      <point x="841" y="621" type="line"/>
      <point x="429" y="208" type="line"/>
    </contour>
    <contour>
      <point x="76" y="504" type="line"/>
      <point x="544" y="504" type="line"/>
      <point x="972" y="550" type="line"/>
      <point x="972" y="732" type="line"/>
      <point x="544" y="779" type="line"/>
      <point x="76" y="779" type="line"/>
    </contour>
  </outline>
</glyph>
<glyph name="uni21E7" format="2">
  <advance width="1200"/>
  <unicode hex="21E7"/>
  <outline>
    <contour>
      <point x="398" y="146" type="curve" smooth="yes"/>
      <point x="802" y="146" type="line" smooth="yes"/>
      <point x="892" y="146"/>
      <point x="942" y="199"/>
      <point x="942" y="296" type="curve" smooth="yes"/>
      <point x="942" y="473" type="line"/>
      <point x="1080" y="473" type="line" smooth="yes"/>
      <point x="1156" y="473"/>
      <point x="1190" y="504"/>
      <point x="1190" y="572" type="curve" smooth="yes"/>
      <point x="1190" y="606"/>
      <point x="1171" y="639"/>
      <point x="1136" y="682" type="curve" smooth="yes"/>
      <point x="663" y="1259" type="line" smooth="yes"/>
      <point x="645" y="1280"/>
      <point x="622" y="1289"/>
      <point x="600" y="1289" type="curve" smooth="yes"/>
      <point x="577" y="1289"/>
      <point x="554" y="1280"/>
      <point x="536" y="1259" type="curve" smooth="yes"/>
      <point x="63" y="681" type="line" smooth="yes"/>
      <point x="28" y="639"/>
      <point x="10" y="605"/>
      <point x="10" y="572" type="curve" smooth="yes"/>
      <point x="10" y="504"/>
      <point x="44" y="473"/>
      <point x="120" y="473" type="curve" smooth="yes"/>
      <point x="258" y="473" type="line"/>
      <point x="258" y="296" type="line" smooth="yes"/>
      <point x="258" y="199"/>
      <point x="308" y="146"/>
    </contour>
    <contour>
      <point x="494" y="327" type="line" smooth="yes"/>
      <point x="462" y="327"/>
      <point x="444" y="345"/>
      <point x="444" y="377" type="curve" smooth="yes"/>
      <point x="445" y="624" type="line"/>
      <point x="99" y="624" type="line"/>
      <point x="201" y="550" type="line"/>
      <point x="699" y="1163" type="line"/>
      <point x="501" y="1163" type="line"/>
      <point x="999" y="550" type="line"/>
      <point x="1101" y="624" type="line"/>
      <point x="755" y="624" type="line"/>
      <point x="756" y="377" type="line" smooth="yes"/>
      <point x="756" y="345"/>
      <point x="738" y="327"/>
      <point x="706" y="327" type="curve" smooth="yes"/>
    </contour>
  </outline>
</glyph>
<glyph name="proportion" format="2">
  <advance width="1200"/>
  <unicode hex="2237"/>
  <outline>
    <contour>
      <point x="878" y="791" type="curve" smooth="yes"/>
      <point x="984" y="791"/>
      <point x="1064" y="872"/>
      <point x="1064" y="980" type="curve" smooth="yes"/>
      <point x="1064" y="1087"/>
      <point x="984" y="1168"/>
      <point x="878" y="1168" type="curve" smooth="yes"/>
      <point x="772" y="1168"/>
      <point x="692" y="1087"/>
      <point x="692" y="980" type="curve" smooth="yes"/>
      <point x="692" y="872"/>
      <point x="772" y="791"/>
    </contour>
    <contour>
      <point x="323" y="115" type="curve" smooth="yes"/>
      <point x="428" y="115"/>
      <point x="508" y="195"/>
      <point x="508" y="303" type="curve" smooth="yes"/>
      <point x="508" y="411"/>
      <point x="428" y="492"/>
      <point x="323" y="492" type="curve" smooth="yes"/>
      <point x="216" y="492"/>
      <point x="136" y="411"/>
      <point x="136" y="303" type="curve" smooth="yes"/>
      <point x="136" y="195"/>
      <point x="216" y="115"/>
    </contour>
    <contour>
      <point x="878" y="115" type="curve" smooth="yes"/>
      <point x="984" y="115"/>
      <point x="1064" y="195"/>
      <point x="1064" y="303" type="curve" smooth="yes"/>
      <point x="1064" y="411"/>
      <point x="984" y="492"/>
      <point x="878" y="492" type="curve" smooth="yes"/>
      <point x="772" y="492"/>
      <point x="692" y="411"/>
      <point x="692" y="303" type="curve" smooth="yes"/>
      <point x="692" y="195"/>
      <point x="772" y="115"/>
    </contour>
    <contour>
      <point x="322" y="791" type="curve" smooth="yes"/>
      <point x="428" y="791"/>
      <point x="508" y="873"/>
      <point x="508" y="980" type="curve" smooth="yes"/>
      <point x="508" y="1087"/>
      <point x="428" y="1168"/>
      <point x="322" y="1168" type="curve" smooth="yes"/>
      <point x="216" y="1168"/>
      <point x="136" y="1087"/>
      <point x="136" y="980" type="curve" smooth="yes"/>
      <point x="136" y="873"/>
      <point x="216" y="791"/>
    </contour>
  </outline>
</glyph>
<glyph name="optionKey" format="2">
  <advance width="1200"/>
  <unicode hex="2325"/>
  <outline>
    <contour>
      <point x="709" y="143" type="line"/>
      <point x="989" y="143" type="line"/>
      <point x="490" y="1289" type="line"/>
      <point x="210" y="1289" type="line"/>
    </contour>
    <contour>
      <point x="19" y="1019" type="line"/>
      <point x="480" y="1019" type="line"/>
      <point x="444" y="1289" type="line"/>
      <point x="19" y="1289" type="line"/>
    </contour>
    <contour>
      <point x="768" y="143" type="line"/>
      <point x="1181" y="143" type="line"/>
      <point x="1181" y="413" type="line"/>
      <point x="715" y="413" type="line"/>
    </contour>
    <contour>
      <point x="720" y="1019" type="line"/>
      <point x="1181" y="1019" type="line"/>
      <point x="1181" y="1289" type="line"/>
      <point x="720" y="1289" type="line"/>
    </contour>
  </outline>
</glyph>
<glyph name="boxLightVertical" format="2">
  <advance width="1200"/>
  <unicode hex="2502"/>
  <outline>
    <contour>
      <point x="450" y="-656" type="line"/>
      <point x="750" y="-656" type="line"/>
      <point x="750" y="1944" type="line"/>
      <point x="450" y="1944" type="line"/>
    </contour>
  </outline>
</glyph>
<glyph name="boxHeavyVertical" format="2">
  <advance width="1200"/>
  <unicode hex="2503"/>
  <outline>
    <contour>
      <point x="330" y="-656" type="line"/>
      <point x="870" y="-656" type="line"/>
      <point x="870" y="1944" type="line"/>
      <point x="330" y="1944" type="line"/>
    </contour>
  </outline>
</glyph>
<glyph name="boxLightQuadrupleDashHorizontal" format="2">
  <advance width="1200"/>
  <unicode hex="2508"/>
  <outline>
    <contour>
      <point x="938" y="494" type="line"/>
      <point x="1163" y="494" type="line"/>
      <point x="1163" y="794" type="line"/>
      <point x="938" y="794" type="line"/>
    </contour>
    <contour>
      <point x="38" y="494" type="line"/>
      <point x="263" y="494" type="line"/>
      <point x="263" y="794" type="line"/>
      <point x="38" y="794" type="line"/>
    </contour>
    <contour>
      <point x="338" y="494" type="line"/>
      <point x="563" y="494" type="line"/>
      <point x="563" y="794" type="line"/>
      <point x="338" y="794" type="line"/>
    </contour>
    <contour>
      <point x="638" y="494" type="line"/>
      <point x="863" y="494" type="line"/>
      <point x="863" y="794" type="line"/>
      <point x="638" y="794" type="line"/>
    </contour>
  </outline>
</glyph>
<glyph name="boxHeavyQuadrupleDashHorizontal" format="2">
  <advance width="1200"/>
  <unicode hex="2509"/>
  <outline>
    <contour>
      <point x="938" y="374" type="line"/>
      <point x="1163" y="374" type="line"/>
      <point x="1163" y="914" type="line"/>
      <point x="938" y="914" type="line"/>
    </contour>
    <contour>
      <point x="38" y="374" type="line"/>
      <point x="263" y="374" type="line"/>
      <point x="263" y="914" type="line"/>
      <point x="38" y="914" type="line"/>
    </contour>
    <contour>
      <point x="338" y="374" type="line"/>
      <point x="563" y="374" type="line"/>
      <point x="563" y="914" type="line"/>
      <point x="338" y="914" type="line"/>
    </contour>
    <contour>
      <point x="638" y="374" type="line"/>
      <point x="863" y="374" type="line"/>
      <point x="863" y="914" type="line"/>
      <point x="638" y="914" type="line"/>
    </contour>
  </outline>
</glyph>
<glyph name="boxHeavyDownAndRight" format="2">
  <advance width="1200"/>
  <unicode hex="250F"/>
  <outline>
    <contour>
      <point x="330" y="-656" type="line"/>
      <point x="870" y="-656" type="line"/>
      <point x="870" y="374" type="line"/>
      <point x="1350" y="374" type="line"/>
      <point x="1350" y="914" type="line"/>
      <point x="330" y="914" type="line"/>
    </contour>
  </outline>
</glyph>
<glyph name="boxLightDownAndLeft" format="2">
  <advance width="1200"/>
  <unicode hex="2510"/>
  <outline>
    <contour>
      <point x="450" y="-656" type="line"/>
      <point x="750" y="-656" type="line"/>
      <point x="750" y="794" type="line"/>
      <point x="-150" y="794" type="line"/>
      <point x="-150" y="494" type="line"/>
      <point x="450" y="494" type="line"/>
    </contour>
  </outline>
</glyph>
<glyph name="boxDownHeavyAndLeftLight" format="2">
  <advance width="1200"/>
  <unicode hex="2512"/>
  <outline>
    <contour>
      <point x="330" y="-656" type="line"/>
      <point x="870" y="-656" type="line"/>
      <point x="870" y="794" type="line"/>
      <point x="-150" y="794" type="line"/>
      <point x="-150" y="494" type="line"/>
      <point x="330" y="494" type="line"/>
    </contour>
  </outline>
</glyph>
<glyph name="boxUpHeavyAndRightLight" format="2">
  <advance width="1200"/>
  <unicode hex="2516"/>
  <outline>
    <contour>
      <point x="330" y="494" type="line"/>
      <point x="1350" y="494" type="line"/>
      <point x="1350" y="794" type="line"/>
      <point x="870" y="794" type="line"/>
      <point x="870" y="1944" type="line"/>
      <point x="330" y="1944" type="line"/>
    </contour>
  </outline>
</glyph>
<glyph name="boxLightUpAndLeft" format="2">
  <advance width="1200"/>
  <unicode hex="2518"/>
  <outline>
    <contour>
      <point x="-150" y="494" type="line"/>
      <point x="750" y="494" type="line"/>
      <point x="750" y="1944" type="line"/>
      <point x="450" y="1944" type="line"/>
      <point x="450" y="794" type="line"/>
      <point x="-150" y="794" type="line"/>
    </contour>
  </outline>
</glyph>
<glyph name="boxUpHeavyAndLeftLight" format="2">
  <advance width="1200"/>
  <unicode hex="251A"/>
  <outline>
    <contour>
      <point x="-150" y="494" type="line"/>
      <point x="870" y="494" type="line"/>
      <point x="870" y="1944" type="line"/>
      <point x="330" y="1944" type="line"/>
      <point x="330" y="794" type="line"/>
      <point x="-150" y="794" type="line"/>
    </contour>
  </outline>
</glyph>
<glyph name="boxVerticalLightAndRightHeavy" format="2">
  <advance width="1200"/>
  <unicode hex="251D"/>
  <outline>
    <contour>
      <point x="450" y="-656" type="line"/>
      <point x="750" y="-656" type="line"/>
      <point x="750" y="374" type="line"/>
      <point x="1350" y="374" type="line"/>
      <point x="1350" y="914" type="line"/>
      <point x="750" y="914" type="line"/>
      <point x="750" y="1944" type="line"/>
      <point x="450" y="1944" type="line"/>
    </contour>
  </outline>
</glyph>
<glyph name="boxVerticalHeavyAndRightLight" format="2">
  <advance width="1200"/>
  <unicode hex="2520"/>
  <outline>
    <contour>
      <point x="330" y="-656" type="line"/>
      <point x="870" y="-656" type="line"/>
      <point x="870" y="494" type="line"/>
      <point x="1350" y="494" type="line"/>
      <point x="1350" y="794" type="line"/>
      <point x="870" y="794" type="line"/>
      <point x="870" y="1944" type="line"/>
      <point x="330" y="1944" type="line"/>
    </contour>
  </outline>
</glyph>
<glyph name="boxDownLightAndLeftUpHeavy" format="2">
  <advance width="1200"/>
  <unicode hex="2529"/>
  <outline>
    <contour>
      <point x="450" y="-656" type="line"/>
      <point x="750" y="-656" type="line"/>
      <point x="750" y="374" type="line"/>
      <point x="870" y="374" type="line"/>
      <point x="870" y="1944" type="line"/>
      <point x="330" y="1944" type="line"/>
      <point x="330" y="914" type="line"/>
      <point x="-150" y="914" type="line"/>
      <point x="-150" y="374" type="line"/>
      <point x="450" y="374" type="line"/>
    </contour>
  </outline>
</glyph>
<glyph name="boxDownLightAndHorizontalHeavy" format="2">
  <advance width="1200"/>
  <unicode hex="252F"/>
  <outline>
    <contour>
      <point x="450" y="-656" type="line"/>
      <point x="750" y="-656" type="line"/>
      <point x="750" y="374" type="line"/>
      <point x="1350" y="374" type="line"/>
      <point x="1350" y="914" type="line"/>
      <point x="-150" y="914" type="line"/>
      <point x="-150" y="374" type="line"/>
      <point x="450" y="374" type="line"/>
    </contour>
  </outline>
</glyph>
<glyph name="boxLeftHeavyAndRightUpLight" format="2">
  <advance width="1200"/>
  <unicode hex="2535"/>
  <outline>
    <contour>
      <point x="-150" y="374" type="line"/>
      <point x="750" y="374" type="line"/>
      <point x="750" y="494" type="line"/>
      <point x="1350" y="494" type="line"/>
      <point x="1350" y="794" type="line"/>
      <point x="750" y="794" type="line"/>
      <point x="750" y="1944" type="line"/>
      <point x="450" y="1944" type="line"/>
      <point x="450" y="914" type="line"/>
      <point x="-150" y="914" type="line"/>
    </contour>
  </outline>
</glyph>
<glyph name="boxDownHeavyAndUpHorizontalLight" format="2">
  <advance width="1200"/>
  <unicode hex="2541"/>
  <outline>
    <contour>
      <point x="330" y="-656" type="line"/>
      <point x="870" y="-656" type="line"/>
      <point x="870" y="494" type="line"/>
      <point x="1350" y="494" type="line"/>
      <point x="1350" y="794" type="line"/>
      <point x="750" y="794" type="line"/>
      <point x="750" y="1944" type="line"/>
      <point x="450" y="1944" type="line"/>
      <point x="450" y="794" type="line"/>
      <point x="-150" y="794" type="line"/>
      <point x="-150" y="494" type="line"/>
      <point x="330" y="494" type="line"/>
    </contour>
  </outline>
</glyph>
<glyph name="boxLeftUpHeavyAndRightDownLight" format="2">
  <advance width="1200"/>
  <unicode hex="2543"/>
  <outline>
    <contour>
      <point x="450" y="-656" type="line"/>
      <point x="750" y="-656" type="line"/>
      <point x="750" y="374" type="line"/>
      <point x="870" y="374" type="line"/>
      <point x="870" y="494" type="line"/>
      <point x="1350" y="494" type="line"/>
      <point x="1350" y="794" type="line"/>
      <point x="870" y="794" type="line"/>
      <point x="870" y="1944" type="line"/>
      <point x="330" y="1944" type="line"/>
      <point x="330" y="914" type="line"/>
      <point x="-150" y="914" type="line"/>
      <point x="-150" y="374" type="line"/>
      <point x="450" y="374" type="line"/>
    </contour>
  </outline>
</glyph>
<glyph name="boxLeftDownHeavyAndRightUpLight" format="2">
  <advance width="1200"/>
  <unicode hex="2545"/>
  <outline>
    <contour>
      <point x="330" y="-656" type="line"/>
      <point x="870" y="-656" type="line"/>
      <point x="870" y="494" type="line"/>
      <point x="1350" y="494" type="line"/>
      <point x="1350" y="794" type="line"/>
      <point x="870" y="794" type="line"/>
      <point x="870" y="914" type="line"/>
      <point x="750" y="914" type="line"/>
      <point x="750" y="1944" type="line"/>
      <point x="450" y="1944" type="line"/>
      <point x="450" y="914" type="line"/>
      <point x="-150" y="914" type="line"/>
      <point x="-150" y="374" type="line"/>
      <point x="330" y="374" type="line"/>
    </contour>
  </outline>
</glyph>
<glyph name="boxRightLightAndLeftVerticalHeavy" format="2">
  <advance width="1200"/>
  <unicode hex="2549"/>
  <outline>
    <contour>
      <point x="330" y="-656" type="line"/>
      <point x="870" y="-656" type="line"/>
      <point x="870" y="494" type="line"/>
      <point x="1350" y="494" type="line"/>
      <point x="1350" y="794" type="line"/>
      <point x="870" y="794" type="line"/>
      <point x="870" y="1944" type="line"/>
      <point x="330" y="1944" type="line"/>
      <point x="330" y="914" type="line"/>
      <point x="-150" y="914" type="line"/>
      <point x="-150" y="374" type="line"/>
      <point x="330" y="374" type="line"/>
    </contour>
  </outline>
</glyph>
<glyph name="boxHeavyDoubleDashHorizontal" format="2">
  <advance width="1200"/>
  <unicode hex="254D"/>
  <outline>
    <contour>
      <point x="750" y="374" type="line"/>
      <point x="1050" y="374" type="line"/>
      <point x="1050" y="914" type="line"/>
      <point x="750" y="914" type="line"/>
    </contour>
    <contour>
      <point x="150" y="374" type="line"/>
      <point x="450" y="374" type="line"/>
      <point x="450" y="914" type="line"/>
      <point x="150" y="914" type="line"/>
    </contour>
  </outline>
</glyph>
<glyph name="boxDownSingleAndLeftDouble" format="2">
  <advance width="1200"/>
  <unicode hex="2555"/>
  <outline>
    <contour>
      <point x="450" y="-656" type="line"/>
      <point x="750" y="-656" type="line"/>
      <point x="750" y="1094" type="line"/>
      <point x="-150" y="1094" type="line"/>
      <point x="-150" y="794" type="line"/>
      <point x="450" y="794" type="line"/>
      <point x="450" y="494" type="line"/>
      <point x="-150" y="494" type="line"/>
      <point x="-150" y="194" type="line"/>
      <point x="450" y="194" type="line"/>
    </contour>
  </outline>
</glyph>
<glyph name="boxDownDoubleAndLeftSingle" format="2">
  <advance width="1200"/>
  <unicode hex="2556"/>
  <outline>
    <contour>
      <point x="150" y="-656" type="line"/>
      <point x="450" y="-656" type="line"/>
      <point x="450" y="494" type="line"/>
      <point x="750" y="494" type="line"/>
      <point x="750" y="-656" type="line"/>
      <point x="1050" y="-656" type="line"/>
      <point x="1050" y="794" type="line"/>
      <point x="-150" y="794" type="line"/>
      <point x="-150" y="494" type="line"/>
      <point x="150" y="494" type="line"/>
    </contour>
  </outline>
</glyph>
<glyph name="boxUpDoubleAndLeftSingle" format="2">
  <advance width="1200"/>
  <unicode hex="255C"/>
  <outline>
    <contour>
      <point x="-150" y="494" type="line"/>
      <point x="1050" y="494" type="line"/>
      <point x="1050" y="1944" type="line"/>
      <point x="750" y="1944" type="line"/>
      <point x="750" y="794" type="line"/>
      <point x="450" y="794" type="line"/>
      <point x="450" y="1944" type="line"/>
      <point x="150" y="1944" type="line"/>
      <point x="150" y="794" type="line"/>
      <point x="-150" y="794" type="line"/>
    </contour>
  </outline>
</glyph>
<glyph name="boxVerticalSingleAndRightDouble" format="2">
  <advance width="1200"/>
  <unicode hex="255E"/>
  <outline>
    <contour>
      <point x="450" y="-656" type="line"/>
      <point x="750" y="-656" type="line"/>
      <point x="750" y="194" type="line"/>
      <point x="1350" y="194" type="line"/>
      <point x="1350" y="494" type="line"/>
      <point x="750" y="494" type="line"/>
      <point x="750" y="794" type="line"/>
      <point x="1350" y="794" type="line"/>
      <point x="1350" y="1094" type="line"/>
      <point x="750" y="1094" type="line"/>
      <point x="750" y="1944" type="line"/>
      <point x="450" y="1944" type="line"/>
    </contour>
  </outline>
</glyph>
<glyph name="boxUpSingleAndHorizontalDouble" format="2">
  <advance width="1200"/>
  <unicode hex="2567"/>
  <outline>
    <contour>
      <point x="-150" y="794" type="line"/>
      <point x="1350" y="794" type="line"/>
      <point x="1350" y="1094" type="line"/>
      <point x="750" y="1094" type="line"/>
      <point x="750" y="1944" type="line"/>
      <point x="450" y="1944" type="line"/>
      <point x="450" y="1094" type="line"/>
      <point x="-150" y="1094" type="line"/>
    </contour>
    <contour>
      <point x="-150" y="194" type="line"/>
      <point x="1350" y="194" type="line"/>
      <point x="1350" y="494" type="line"/>
      <point x="-150" y="494" type="line"/>
    </contour>
  </outline>
</glyph>
<glyph name="boxUpDoubleAndHorizontalSingle" format="2">
  <advance width="1200"/>
  <unicode hex="2568"/>
  <outline>
    <contour>
      <point x="-150" y="494" type="line"/>
      <point x="1350" y="494" type="line"/>
      <point x="1350" y="794" type="line"/>
      <point x="1050" y="794" type="line"/>
      <point x="1050" y="1944" type="line"/>
      <point x="750" y="1944" type="line"/>
      <point x="750" y="794" type="line"/>
      <point x="450" y="794" type="line"/>
      <point x="450" y="1944" type="line"/>
      <point x="150" y="1944" type="line"/>
      <point x="150" y="794" type="line"/>
      <point x="-150" y="794" type="line"/>
    </contour>
  </outline>
</glyph>
<glyph name="boxLightArcDownAndLeft" format="2">
  <advance width="1200"/>
  <unicode hex="256E"/>
  <outline>
    <contour>
      <point x="450" y="-656" type="line"/>
      <point x="750" y="-656" type="line"/>
      <point x="750" y="194" type="line" smooth="yes"/>
      <point x="750" y="568"/>
      <point x="524" y="794"/>
      <point x="150" y="794" type="curve" smooth="yes"/>
      <point x="-150" y="794" type="line"/>
      <point x="-150" y="494" type="line"/>
      <point x="150" y="494" type="line" smooth="yes"/>
      <point x="341" y="494"/>
      <point x="450" y="385"/>
      <point x="450" y="194" type="curve" smooth="yes"/>
    </contour>
  </outline>
</glyph>
<glyph name="boxLightArcUpAndLeft" format="2">
  <advance width="1200"/>
  <unicode hex="256F"/>
  <outline>
    <contour>
      <point x="-150" y="494" type="line"/>
      <point x="150" y="494" type="line" smooth="yes"/>
      <point x="524" y="494"/>
      <point x="750" y="720"/>
      <point x="750" y="1094" type="curve" smooth="yes"/>
      <point x="750" y="1944" type="line"/>
      <point x="450" y="1944" type="line"/>
      <point x="450" y="1094" type="line" smooth="yes"/>
      <point x="450" y="903"/>
      <point x="341" y="794"/>
      <point x="150" y="794" type="curve" smooth="yes"/>
      <point x="-150" y="794" type="line"/>
    </contour>
  </outline>
</glyph>
<glyph name="boxLightArcUpAndRight" format="2">
  <advance width="1200"/>
  <unicode hex="2570"/>
  <outline>
    <contour>
      <point x="1050" y="494" type="curve" smooth="yes"/>
      <point x="1350" y="494" type="line"/>
      <point x="1350" y="794" type="line"/>
      <point x="1050" y="794" type="line" smooth="yes"/>
      <point x="859" y="794"/>
      <point x="750" y="903"/>
      <point x="750" y="1094" type="curve" smooth="yes"/>
      <point x="750" y="1944" type="line"/>
      <point x="450" y="1944" type="line"/>
      <point x="450" y="1094" type="line" smooth="yes"/>
      <point x="450" y="720"/>
      <point x="676" y="494"/>
    </contour>
  </outline>
</glyph>
<glyph name="boxLightLeft" format="2">
  <advance width="1200"/>
  <unicode hex="2574"/>
  <outline>
    <contour>
      <point x="-150" y="494" type="line"/>
      <point x="750" y="494" type="line"/>
      <point x="750" y="794" type="line"/>
      <point x="-150" y="794" type="line"/>
    </contour>
  </outline>
</glyph>
<glyph name="boxLightUp" format="2">
  <advance width="1200"/>
  <unicode hex="2575"/>
  <outline>
    <contour>
      <point x="450" y="494" type="line"/>
      <point x="750" y="494" type="line"/>
      <point x="750" y="1944" type="line"/>
      <point x="450" y="1944" type="line"/>
    </contour>
  </outline>
</glyph>
<glyph name="boxHeavyLeft" format="2">
  <advance width="1200"/>
  <unicode hex="2578"/>
  <outline>
    <contour>
      <point x="-150" y="374" type="line"/>
      <point x="750" y="374" type="line"/>
      <point x="750" y="914" type="line"/>
      <point x="-150" y="914" type="line"/>
    </contour>
  </outline>
</glyph>
<glyph name="shadelight" format="2">
  <advance width="1200"/>
  <unicode hex="2591"/>
  <outline>
    <contour>
      <point x="1044" y="1717" type="line"/>
      <point x="1158" y="1717" type="line"/>
      <point x="1158" y="1831" type="line"/>
      <point x="1044" y="1831" type="line"/>
    </contour>
    <contour>
      <point x="42" y="-608" type="line"/>
      <point x="156" y="-608" type="line"/>
      <point x="156" y="-494" type="line"/>
      <point x="42" y="-494" type="line"/>
    </contour>
    <contour>
      <point x="42" y="-251" type="line"/>
      <point x="156" y="-251" type="line"/>
      <point x="156" y="-137" type="line"/>
      <point x="42" y="-137" type="line"/>
    </contour>
    <contour>
      <point x="244" y="-429" type="line"/>
      <point x="358" y="-429" type="line"/>
      <point x="358" y="-315" type="line"/>
      <point x="244" y="-315" type="line"/>
    </contour>
    <contour>
      <point x="443" y="-608" type="line"/>
      <point x="557" y="-608" type="line"/>
      <point x="557" y="-494" type="line"/>
      <point x="443" y="-494" type="line"/>
    </contour>
    <contour>
      <point x="42" y="108" type="line"/>
      <point x="156" y="108" type="line"/>
      <point x="156" y="222" type="line"/>
      <point x="42" y="222" type="line"/>
    </contour>
    <contour>
      <point x="244" y="-71" type="line"/>
      <point x="358" y="-71" type="line"/>
      <point x="358" y="43" type="line"/>
      <point x="244" y="43" type="line"/>
    </contour>
    <contour>
      <point x="443" y="-251" type="line"/>
      <point x="557" y="-251" type="line"/>
      <point x="557" y="-137" type="line"/>
      <point x="443" y="-137" type="line"/>
    </contour>
    <contour>
      <point x="644" y="-429" type="line"/>
      <point x="758" y="-429" type="line"/>
      <point x="758" y="-315" type="line"/>
      <point x="644" y="-315" type="line"/>
    </contour>
    <contour>
      <point x="843" y="-608" type="line"/>
      <point x="957" y="-608" type="line"/>
      <point x="957" y="-494" type="line"/>
      <point x="843" y="-494" type="line"/>
    </contour>
    <contour>
      <point x="42" y="465" type="line"/>
      <point x="156" y="465" type="line"/>
      <point x="156" y="579" type="line"/>
      <point x="42" y="579" type="line"/>
    </contour>
    <contour>
      <point x="244" y="286" type="line"/>
      <point x="358" y="286" type="line"/>
      <point x="358" y="400" type="line"/>
      <point x="244" y="400" type="line"/>
    </contour>
    <contour>
      <point x="443" y="108" type="line"/>
      <point x="557" y="108" type="line"/>
      <point x="557" y="222" type="line"/>
      <point x="443" y="222" type="line"/>
    </contour>
    <contour>
      <point x="644" y="-71" type="line"/>
      <point x="758" y="-71" type="line"/>
      <point x="758" y="43" type="line"/>
      <point x="644" y="43" type="line"/>
    </contour>
    <contour>
      <point x="843" y="-250" type="line"/>
      <point x="957" y="-250" type="line"/>
      <point x="957" y="-136" type="line"/>
      <point x="843" y="-136" type="line"/>
    </contour>
    <contour>
      <point x="1044" y="-429" type="line"/>
      <point x="1158" y="-429" type="line"/>
      <point x="1158" y="-315" type="line"/>
      <point x="1044" y="-315" type="line"/>
    </contour>
    <contour>
      <point x="42" y="823" type="line"/>
      <point x="156" y="823" type="line"/>
      <point x="156" y="937" type="line"/>
      <point x="42" y="937" type="line"/>
    </contour>
    <contour>
      <point x="244" y="644" type="line"/>
      <point x="358" y="644" type="line"/>
      <point x="358" y="758" type="line"/>
      <point x="244" y="758" type="line"/>
    </contour>
    <contour>
      <point x="443" y="465" type="line"/>
      <point x="557" y="465" type="line"/>
      <point x="557" y="579" type="line"/>
      <point x="443" y="579" type="line"/>
    </contour>
    <contour>
      <point x="644" y="286" type="line"/>
      <point x="758" y="286" type="line"/>
      <point x="758" y="400" type="line"/>
      <point x="644" y="400" type="line"/>
    </contour>
    <contour>
      <point x="843" y="108" type="line"/>
      <point x="957" y="108" type="line"/>
      <point x="957" y="222" type="line"/>
      <point x="843" y="222" type="line"/>
    </contour>
    <contour>
      <point x="1044" y="-72" type="line"/>
      <point x="1158" y="-72" type="line"/>
      <point x="1158" y="42" type="line"/>
      <point x="1044" y="42" type="line"/>
    </contour>
    <contour>
      <point x="42" y="1181" type="line"/>
      <point x="156" y="1181" type="line"/>
      <point x="156" y="1295" type="line"/>
      <point x="42" y="1295" type="line"/>
    </contour>
    <contour>
      <point x="244" y="1002" type="line"/>
      <point x="358" y="1002" type="line"/>
      <point x="358" y="1116" type="line"/>
      <point x="244" y="1116" type="line"/>
    </contour>
    <contour>
      <point x="443" y="823" type="line"/>
      <point x="557" y="823" type="line"/>
      <point x="557" y="937" type="line"/>
      <point x="443" y="937" type="line"/>
    </contour>
    <contour>
      <point x="644" y="644" type="line"/>
      <point x="758" y="644" type="line"/>
      <point x="758" y="758" type="line"/>
      <point x="644" y="758" type="line"/>
    </contour>
    <contour>
      <point x="843" y="465" type="line"/>
      <point x="957" y="465" type="line"/>
      <point x="957" y="579" type="line"/>
      <point x="843" y="579" type="line"/>
    </contour>
    <contour>
      <point x="1044" y="286" type="line"/>
      <point x="1158" y="286" type="line"/>
      <point x="1158" y="400" type="line"/>
      <point x="1044" y="400" type="line"/>
    </contour>
    <contour>
      <point x="42" y="1538" type="line"/>
      <point x="156" y="1538" type="line"/>
      <point x="156" y="1652" type="line"/>
      <point x="42" y="1652" type="line"/>
    </contour>
    <contour>
      <point x="244" y="1359" type="line"/>
      <point x="358" y="1359" type="line"/>
      <point x="358" y="1473" type="line"/>
      <point x="244" y="1473" type="line"/>
    </contour>
    <contour>
      <point x="443" y="1181" type="line"/>
      <point x="557" y="1181" type="line"/>
      <point x="557" y="1295" type="line"/>
      <point x="443" y="1295" type="line"/>
    </contour>
    <contour>
      <point x="644" y="1002" type="line"/>
      <point x="758" y="1002" type="line"/>
      <point x="758" y="1116" type="line"/>
      <point x="644" y="1116" type="line"/>
    </contour>
    <contour>
      <point x="843" y="823" type="line"/>
      <point x="957" y="823" type="line"/>
      <point x="957" y="937" type="line"/>
      <point x="843" y="937" type="line"/>
    </contour>
    <contour>
      <point x="1044" y="644" type="line"/>
      <point x="1158" y="644" type="line"/>
      <point x="1158" y="758" type="line"/>
      <point x="1044" y="758" type="line"/>
    </contour>
    <contour>
      <point x="244" y="1717" type="line"/>
      <point x="358" y="1717" type="line"/>
      <point x="358" y="1831" type="line"/>
      <point x="244" y="1831" type="line"/>
    </contour>
    <contour>
      <point x="443" y="1538" type="line"/>
      <point x="557" y="1538" type="line"/>
      <point x="557" y="1652" type="line"/>
      <point x="443" y="1652" type="line"/>
    </contour>
    <contour>
      <point x="644" y="1359" type="line"/>
      <point x="758" y="1359" type="line"/>
      <point x="758" y="1473" type="line"/>
      <point x="644" y="1473" type="line"/>
    </contour>
    <contour>
      <point x="843" y="1180" type="line"/>
      <point x="957" y="1180" type="line"/>
      <point x="957" y="1294" type="line"/>
      <point x="843" y="1294" type="line"/>
    </contour>
    <contour>
      <point x="1044" y="1002" type="line"/>
      <point x="1158" y="1002" type="line"/>
      <point x="1158" y="1116" type="line"/>
      <point x="1044" y="1116" type="line"/>
    </contour>
    <contour>
      <point x="644" y="1717" type="line"/>
      <point x="758" y="1717" type="line"/>
      <point x="758" y="1831" type="line"/>
      <point x="644" y="1831" type="line"/>
    </contour>
    <contour>
      <point x="843" y="1538" type="line"/>
      <point x="957" y="1538" type="line"/>
      <point x="957" y="1652" type="line"/>
      <point x="843" y="1652" type="line"/>
    </contour>
    <contour>
      <point x="1044" y="1359" type="line"/>
      <point x="1158" y="1359" type="line"/>
      <point x="1158" y="1473" type="line"/>
      <point x="1044" y="1473" type="line"/>
    </contour>
  </outline>
</glyph>
<glyph name="whiteSquare" format="2">
  <advance width="1200"/>
  <unicode hex="25A1"/>
  <outline>
    <contour>
      <point x="78" y="194" type="line"/>
      <point x="1122" y="194" type="line"/>
      <point x="1122" y="1238" type="line"/>
      <point x="78" y="1238" type="line"/>
    </contour>
    <contour>
      <point x="256" y="367" type="line"/>
      <point x="256" y="1065" type="line"/>
      <point x="944" y="1065" type="line"/>
      <point x="944" y="367" type="line"/>
    </contour>
  </outline>
</glyph>
<glyph name="blackDiamond" format="2">
  <advance width="1200"/>
  <unicode hex="25C6"/>
  <outline>
    <contour>
      <point x="600" y="184" type="line"/>
      <point x="1132" y="716" type="line"/>
      <point x="600" y="1248" type="line"/>
      <point x="68" y="716" type="line"/>
    </contour>
  </outline>
</glyph>
<glyph name="lozenge" format="2">
  <advance width="1200"/>
  <unicode hex="25CA"/>
  <outline>
    <contour>
      <point x="491" y="-34" type="line"/>
      <point x="710" y="-34" type="line"/>
      <point x="1128" y="716" type="line"/>
      <point x="710" y="1466" type="line"/>
      <point x="491" y="1466" type="line"/>
      <point x="72" y="716" type="line"/>
    </contour>
    <contour>
      <point x="600" y="269" type="line"/>
      <point x="312" y="802" type="line"/>
      <point x="312" y="630" type="line"/>
      <point x="600" y="1164" type="line"/>
      <point x="889" y="630" type="line"/>
      <point x="889" y="802" type="line"/>
    </contour>
  </outline>
</glyph>
<glyph name="whiteCircle" format="2">
  <advance width="1200"/>
  <unicode hex="25CB"/>
  <outline>
    <contour>
      <point x="600" y="142" type="curve" smooth="yes"/>
      <point x="929" y="142"/>
      <point x="1174" y="387"/>
      <point x="1174" y="716" type="curve" smooth="yes"/>
      <point x="1174" y="1046"/>
      <point x="930" y="1290"/>
      <point x="600" y="1290" type="curve" smooth="yes"/>
      <point x="271" y="1290"/>
      <point x="26" y="1045"/>
      <point x="26" y="716" type="curve" smooth="yes"/>
      <point x="26" y="387"/>
      <point x="271" y="142"/>
    </contour>
    <contour>
      <point x="600" y="320" type="curve" smooth="yes"/>
      <point x="372" y="320"/>
      <point x="208" y="485"/>
      <point x="208" y="716" type="curve" smooth="yes"/>
      <point x="208" y="947"/>
      <point x="372" y="1113"/>
      <point x="600" y="1113" type="curve" smooth="yes"/>
      <point x="828" y="1113"/>
      <point x="993" y="947"/>
      <point x="993" y="716" type="curve" smooth="yes"/>
      <point x="993" y="485"/>
      <point x="828" y="320"/>
    </contour>
  </outline>
</glyph>
<glyph name="blackCircle" format="2">
  <advance width="1200"/>
  <unicode hex="25CF"/>
  <outline>
    <contour>
      <point x="600" y="200" type="curve" smooth="yes"/>
      <point x="890" y="200"/>
      <point x="1112" y="424"/>
      <point x="1112" y="716" type="curve" smooth="yes"/>
      <point x="1112" y="1008"/>
      <point x="890" y="1232"/>
      <point x="600" y="1232" type="curve" smooth="yes"/>
      <point x="310" y="1232"/>
      <point x="88" y="1008"/>
      <point x="88" y="716" type="curve" smooth="yes"/>
      <point x="88" y="424"/>
      <point x="310" y="200"/>
    </contour>
  </outline>
</glyph>
<glyph name="inverseWhiteCircle" format="2">
  <advance width="1200"/>
  <unicode hex="25D9"/>
  <outline>
    <contour>
      <point x="27" y="143" type="line"/>
      <point x="1173" y="143" type="line"/>
      <point x="1173" y="1289" type="line"/>
      <point x="27" y="1289" type="line"/>
    </contour>
    <contour>
      <point x="600" y="165" type="curve" smooth="yes"/>
      <point x="289" y="165"/>
      <point x="49" y="405"/>
      <point x="49" y="716" type="curve" smooth="yes"/>
      <point x="49" y="1027"/>
      <point x="289" y="1267"/>
      <point x="600" y="1267" type="curve" smooth="yes"/>
      <point x="912" y="1267"/>
      <point x="1151" y="1028"/>
      <point x="1151" y="716" type="curve" smooth="yes"/>
      <point x="1151" y="405"/>
      <point x="912" y="165"/>
    </contour>
    <contour>
      <point x="600" y="335" type="curve" smooth="yes"/>
      <point x="814" y="335"/>
      <point x="977" y="499"/>
      <point x="977" y="716" type="curve" smooth="yes"/>
      <point x="977" y="933"/>
      <point x="814" y="1097"/>
      <point x="600" y="1097" type="curve" smooth="yes"/>
      <point x="386" y="1097"/>
      <point x="223" y="933"/>
      <point x="223" y="716" type="curve" smooth="yes"/>
      <point x="223" y="499"/>
      <point x="386" y="335"/>
    </contour>
  </outline>
</glyph>
<glyph name="Eng.loclNSM" format="2">
  <advance width="1200"/>
  <outline>
    <contour>
      <point x="697" y="-465" type="curve" smooth="yes"/>
      <point x="955" y="-465"/>
      <point x="1130" y="-280"/>
      <point x="1130" y="-4" type="curve" smooth="yes"/>
      <point x="1130" y="1432" type="line"/>
      <point x="831" y="1432" type="line"/>
      <point x="831" y="855" type="line"/>
      <point x="851" y="526" type="line"/>
      <point x="843" y="526" type="line"/>
      <point x="375" y="1432" type="line"/>
      <point x="70" y="1432" type="line"/>
      <point x="70" y="0" type="line"/>
      <point x="368" y="0" type="line"/>
      <point x="368" y="615" type="line"/>
      <point x="348" y="944" type="line"/>
      <point x="356" y="944" type="line"/>
      <point x="854" y="0" type="line"/>
      <point x="826" y="140" type="line"/>
      <point x="826" y="-14" type="line" smooth="yes"/>
      <point x="826" y="-119"/>
      <point x="773" y="-175"/>
      <point x="680" y="-175" type="curve" smooth="yes"/>
      <point x="616" y="-175"/>
      <point x="559" y="-151"/>
      <point x="501" y="-101" type="curve"/>
      <point x="334" y="-339" type="line"/>
      <point x="437" y="-422"/>
      <point x="559" y="-465"/>
    </contour>
  </outline>
</glyph>
<glyph name="brevecomb_gravecomb" format="2">
  <anchor x="0" y="1052" name="_top"/>
  <outline>
    <contour>
      <point x="0" y="1161" type="curve" smooth="yes"/>
      <point x="238" y="1161"/>
      <point x="401" y="1315"/>
      <point x="401" y="1538" type="curve" smooth="yes"/>
      <point x="401" y="1546" type="line"/>
      <point x="195" y="1546" type="line"/>
      <point x="195" y="1535" type="line" smooth="yes"/>
      <point x="195" y="1420"/>
      <point x="122" y="1346"/>
      <point x="0" y="1346" type="curve" smooth="yes"/>
      <point x="-121" y="1346"/>
      <point x="-194" y="1420"/>
      <point x="-194" y="1535" type="curve" smooth="yes"/>
      <point x="-194" y="1546" type="line"/>
      <point x="-400" y="1546" type="line"/>
      <point x="-400" y="1538" type="line" smooth="yes"/>
      <point x="-400" y="1315"/>
      <point x="-238" y="1161"/>
    </contour>
    <contour>
      <point x="-42" y="1523" type="line"/>
      <point x="126" y="1523" type="line"/>
      <point x="126" y="1536" type="line"/>
      <point x="-21" y="1921" type="line"/>
      <point x="-303" y="1921" type="line"/>
      <point x="-303" y="1907" type="line"/>
    </contour>
  </outline>
</glyph>
<glyph name="brevecomb_tildecomb" format="2">
  <anchor x="0" y="1052" name="_top"/>
  <outline>
    <contour>
      <point x="0" y="1161" type="curve" smooth="yes"/>
      <point x="229" y="1161"/>
      <point x="383" y="1310"/>
      <point x="383" y="1527" type="curve" smooth="yes"/>
      <point x="383" y="1535" type="line"/>
      <point x="172" y="1535" type="line"/>
      <point x="172" y="1524" type="line" smooth="yes"/>
      <point x="172" y="1413"/>
      <point x="106" y="1344"/>
      <point x="0" y="1344" type="curve" smooth="yes"/>
      <point x="-106" y="1344"/>
      <point x="-171" y="1413"/>
      <point x="-171" y="1524" type="curve" smooth="yes"/>
      <point x="-171" y="1535" type="line"/>
      <point x="-382" y="1535" type="line"/>
      <point x="-382" y="1527" type="line" smooth="yes"/>
      <point x="-382" y="1310"/>
      <point x="-228" y="1161"/>
    </contour>
    <contour>
      <point x="211" y="1637" type="curve" smooth="yes"/>
      <point x="342" y="1637"/>
      <point x="413" y="1722"/>
      <point x="413" y="1884" type="curve" smooth="yes"/>
      <point x="413" y="1975" type="line"/>
      <point x="203" y="1975" type="line"/>
      <point x="203" y="1908" type="line" smooth="yes"/>
      <point x="203" y="1862"/>
      <point x="180" y="1837"/>
      <point x="142" y="1837" type="curve" smooth="yes"/>
      <point x="104" y="1837"/>
      <point x="71" y="1853"/>
      <point x="-5" y="1906" type="curve" smooth="yes"/>
      <point x="-71" y="1952"/>
      <point x="-127" y="1979"/>
      <point x="-198" y="1979" type="curve" smooth="yes"/>
      <point x="-331" y="1979"/>
      <point x="-412" y="1890"/>
      <point x="-412" y="1732" type="curve" smooth="yes"/>
      <point x="-412" y="1641" type="line"/>
      <point x="-202" y="1641" type="line"/>
      <point x="-202" y="1706" type="line" smooth="yes"/>
      <point x="-202" y="1752"/>
      <point x="-177" y="1778"/>
      <point x="-136" y="1778" type="curve" smooth="yes"/>
      <point x="-94" y="1778"/>
      <point x="-61" y="1761"/>
      <point x="15" y="1708" type="curve" smooth="yes"/>
      <point x="83" y="1661"/>
      <point x="140" y="1637"/>
    </contour>
  </outline>
</glyph>
<glyph name="circumflexcomb_acutecomb" format="2">
  <anchor x="0" y="1052" name="_top"/>
  <outline>
    <contour>
      <point x="-461" y="1164" type="line"/>
      <point x="-159" y="1164" type="line"/>
      <point x="20" y="1388" type="line"/>
      <point x="-19" y="1388" type="line"/>
      <point x="160" y="1164" type="line"/>
      <point x="462" y="1164" type="line"/>
      <point x="462" y="1177" type="line"/>
      <point x="120" y="1531" type="line"/>
      <point x="-120" y="1531" type="line"/>
      <point x="-461" y="1177" type="line"/>
    </contour>
    <contour>
      <point x="231" y="1471" type="line"/>
      <point x="416" y="1471" type="line"/>
      <point x="639" y="1876" type="line"/>
      <point x="639" y="1889" type="line"/>
      <point x="383" y="1889" type="line"/>
      <point x="231" y="1484" type="line"/>
    </contour>
  </outline>
</glyph>
<glyph name="circumflexcomb_hookabovecomb" format="2">
  <anchor x="0" y="1052" name="_top"/>
  <outline>
    <contour>
      <point x="-461" y="1164" type="line"/>
      <point x="-159" y="1164" type="line"/>
      <point x="20" y="1388" type="line"/>
      <point x="-19" y="1388" type="line"/>
      <point x="160" y="1164" type="line"/>
      <point x="462" y="1164" type="line"/>
      <point x="462" y="1177" type="line"/>
      <point x="120" y="1531" type="line"/>
      <point x="-120" y="1531" type="line"/>
      <point x="-461" y="1177" type="line"/>
    </contour>
    <contour>
      <point x="317" y="1416" type="line"/>
      <point x="490" y="1434"/>
      <point x="591" y="1532"/>
      <point x="591" y="1683" type="curve" smooth="yes"/>
      <point x="591" y="1831"/>
      <point x="480" y="1928"/>
      <point x="308" y="1928" type="curve" smooth="yes"/>
      <point x="236" y="1928"/>
      <point x="171" y="1917"/>
      <point x="111" y="1895" type="curve"/>
      <point x="154" y="1721" type="line"/>
      <point x="204" y="1736"/>
      <point x="253" y="1743"/>
      <point x="302" y="1743" type="curve" smooth="yes"/>
      <point x="376" y="1743"/>
      <point x="415" y="1717"/>
      <point x="415" y="1668" type="curve" smooth="yes"/>
      <point x="415" y="1620"/>
      <point x="373" y="1593"/>
      <point x="294" y="1587" type="curve"/>
    </contour>
  </outline>
</glyph>
<glyph name="ijacute" format="2">
  <advance width="1200"/>
  <anchor x="314" y="1052" name="_top"/>
  <outline>
    <contour>
      <point x="683" y="-449" type="curve" smooth="yes"/>
      <point x="966" y="-449"/>
      <point x="1138" y="-275"/>
      <point x="1138" y="12" type="curve" smooth="yes"/>
      <point x="1138" y="1052" type="line"/>
      <point x="838" y="1052" type="line"/>
      <point x="838" y="2" type="line" smooth="yes"/>
      <point x="838" y="-117"/>
      <point x="778" y="-183"/>
      <point x="669" y="-183" type="curve" smooth="yes"/>
      <point x="597" y="-183"/>
      <point x="533" y="-157"/>
      <point x="460" y="-103" type="curve"/>
      <point x="315" y="-328" type="line"/>
      <point x="424" y="-407"/>
      <point x="548" y="-449"/>
    </contour>
    <contour>
      <point x="23" y="0" type="line"/>
      <point x="702" y="0" type="line"/>
      <point x="702" y="225" type="line"/>
      <point x="23" y="225" type="line"/>
    </contour>
    <contour>
      <point x="217" y="80" type="line"/>
      <point x="514" y="80" type="line"/>
      <point x="514" y="1052" type="line"/>
      <point x="217" y="1052" type="line"/>
    </contour>
    <contour>
      <point x="33" y="828" type="line"/>
      <point x="493" y="828" type="line"/>
      <point x="493" y="1052" type="line"/>
      <point x="33" y="1052" type="line"/>
    </contour>
    <contour>
      <point x="626" y="828" type="line"/>
      <point x="1061" y="828" type="line"/>
      <point x="1061" y="1052" type="line"/>
      <point x="626" y="1052" type="line"/>
    </contour>
    <component base="acutecomb" xOffset="314"/>
    <component base="acutecomb" xOffset="938"/>
  </outline>
</glyph>
<glyph name="ohorn.alt" format="2">
  <advance width="1200"/>
  <outline>
    <contour>
      <point x="583" y="-34" type="curve" smooth="yes"/>
      <point x="896" y="-34"/>
      <point x="1097" y="181"/>
      <point x="1097" y="515" type="curve" smooth="yes"/>
      <point x="1097" y="537" type="line" smooth="yes"/>
      <point x="1097" y="779"/>
      <point x="977" y="962"/>
      <point x="761" y="1032" type="curve"/>
      <point x="723" y="948" type="line"/>
      <point x="807" y="948" type="line" smooth="yes"/>
      <point x="1044" y="948"/>
      <point x="1182" y="1049"/>
      <point x="1182" y="1223" type="curve" smooth="yes"/>
      <point x="1182" y="1274"/>
      <point x="1173" y="1322"/>
      <point x="1157" y="1371" type="curve"/>
      <point x="867" y="1297" type="line"/>
      <point x="883" y="1257"/>
      <point x="891" y="1217"/>
      <point x="891" y="1179" type="curve" smooth="yes"/>
      <point x="891" y="1108"/>
      <point x="853" y="1073"/>
      <point x="776" y="1073" type="curve" smooth="yes"/>
      <point x="719" y="1073"/>
      <point x="665" y="1086"/>
      <point x="583" y="1086" type="curve" smooth="yes"/>
      <point x="265" y="1086"/>
      <point x="69" y="866"/>
      <point x="69" y="537" type="curve" smooth="yes"/>
      <point x="69" y="515" type="line" smooth="yes"/>
      <point x="69" y="187"/>
      <point x="265" y="-34"/>
    </contour>
    <contour>
      <point x="583" y="232" type="curve" smooth="yes"/>
      <point x="446" y="232"/>
      <point x="369" y="339"/>
      <point x="369" y="519" type="curve" smooth="yes"/>
      <point x="369" y="533" type="line" smooth="yes"/>
      <point x="369" y="718"/>
      <point x="446" y="827"/>
      <point x="583" y="827" type="curve" smooth="yes"/>
      <point x="719" y="827"/>
      <point x="797" y="718"/>
      <point x="797" y="533" type="curve" smooth="yes"/>
      <point x="797" y="519" type="line" smooth="yes"/>
      <point x="797" y="339"/>
      <point x="719" y="232"/>
    </contour>
  </outline>
</glyph>
